<?xml version="1.0" encoding="UTF-8" standalone="no"?>
<svg
   xmlns:dc="http://purl.org/dc/elements/1.1/"
   xmlns:cc="http://creativecommons.org/ns#"
   xmlns:rdf="http://www.w3.org/1999/02/22-rdf-syntax-ns#"
   xmlns:svg="http://www.w3.org/2000/svg"
   xmlns="http://www.w3.org/2000/svg"
   id="svg8"
   version="1.1"
   viewBox="0 0 389.91385 229.84622"
   height="229.84622mm"
   width="389.91385mm">
  <defs
     id="defs2">
    <marker
       style="overflow:visible"
       id="marker8693"
       refX="0"
       refY="0"
       orient="auto">
      <path
         transform="matrix(0.8,0,0,0.8,10,0)"
         style="fill:#000000;fill-opacity:1;fill-rule:evenodd;stroke:#000000;stroke-width:1.00000003pt;stroke-opacity:1"
         d="M 0,0 5,-5 -12.5,0 5,5 Z"
         id="path8691" />
    </marker>
    <marker
       orient="auto"
       refY="0"
       refX="0"
       id="Arrow1Lend"
       style="overflow:visible">
      <path
         id="path5534"
         d="M 0,0 5,-5 -12.5,0 5,5 Z"
         style="fill:#000000;fill-opacity:1;fill-rule:evenodd;stroke:#000000;stroke-width:1.00000003pt;stroke-opacity:1"
         transform="matrix(-0.8,0,0,-0.8,-10,0)" />
    </marker>
    <marker
       orient="auto"
       refY="0"
       refX="0"
       id="Arrow1Lstart"
       style="overflow:visible">
      <path
         id="path5531"
         d="M 0,0 5,-5 -12.5,0 5,5 Z"
         style="fill:#000000;fill-opacity:1;fill-rule:evenodd;stroke:#000000;stroke-width:1.00000003pt;stroke-opacity:1"
         transform="matrix(0.8,0,0,0.8,10,0)" />
    </marker>
  </defs>
  <metadata
     id="metadata5">
    <rdf:RDF>
      <cc:Work
         rdf:about="">
        <dc:format>image/svg+xml</dc:format>
        <dc:type
           rdf:resource="http://purl.org/dc/dcmitype/StillImage" />
        <dc:title></dc:title>
      </cc:Work>
    </rdf:RDF>
  </metadata>
  <g
     id="layer1"
     transform="translate(-6.2848568,-18.420137)">
    <g
       id="g4532"
       transform="translate(-77.489729,-70.864785)">
      <g
         id="content"
         transform="matrix(0.3,0,0,-0.3,-52.5,222.75)"
         xml:space="preserve"
         stroke-miterlimit="10.433"
         font-style="normal"
         font-variant="normal"
         font-weight="normal"
         font-stretch="normal"
         font-size-adjust="none"
         letter-spacing="normal"
         word-spacing="normal"
         style="font-style:normal;font-variant:normal;font-weight:normal;font-stretch:normal;letter-spacing:normal;word-spacing:normal;text-anchor:start;fill:none;fill-opacity:1;fill-rule:evenodd;stroke:#000000;stroke-linecap:butt;stroke-linejoin:miter;stroke-miterlimit:10.43299961;stroke-dasharray:none;stroke-dashoffset:0;stroke-opacity:1"><path
           d="m 481.33,406.54 0.55,0.26 0.53,0.28 0.53,0.3 0.51,0.32 0.51,0.34 0.49,0.37 0.47,0.38 0.47,0.39 0.45,0.42 0.44,0.43 0.42,0.46 0.41,0.46 0.4,0.49 0.37,0.5 0.36,0.51 0.35,0.53 0.33,0.55 0.31,0.56 0.29,0.57 0.27,0.58 0.26,0.6 0.23,0.61 0.21,0.62 0.2,0.63 0.17,0.64 0.15,0.65 0.13,0.66 0.11,0.68 0.08,0.67 0.06,0.69 0.04,0.7 0.01,0.7 c 0,10.16 -7.53,18.23 -16.59,18.23 v -1.25 c 4.83,0 11.61,-4.28 11.61,-16.98 0,-3.89 -0.6,-10.91 -5.88,-14.8 -1.09,2.78 -2.69,5.28 -5.62,5.28 v -1.09 c 2.68,0 3.78,-2.09 4.33,-4.98 v 0 c -1.69,-0.96 -3.29,-1.14 -4.4,-1.14 -2.53,0 -2.93,2.28 -2.93,3.03 0,1.45 1.04,3.09 3,3.09 v 1.09 c -2.55,0 -4.1,-2.14 -4.1,-4.18 0,-1.35 0.66,-2.3 0.71,-2.39 v 0 c -2.69,1 -8.28,4.64 -8.28,16.09 0,12.95 6.98,16.98 11.56,16.98 v 1.25 c -8.92,0 -16.53,-7.96 -16.53,-18.23 0,-10.06 7.51,-17.98 16.57,-17.98 1.55,0 3.3,0.29 4.74,0.75 0.75,-4.74 1.45,-9.33 6.08,-9.33 5.09,0 6.03,6.62 6.03,9.17 0,0.5 0,1.05 -0.55,1.05 -0.45,0 -0.5,-0.39 -0.55,-0.89 -0.29,-2.71 -2.39,-4.19 -4.53,-4.19 -2.34,0 -3.59,1.69 -4.78,4.87 z"
           id="path4507"
           style="fill:#000000;stroke-width:0" /><path
           d="m 513.76,410.14 v -4.49 l 7.17,0.55 v 1.55 c -3.48,0 -3.89,0.34 -3.89,2.78 v 17.68 l -7.33,-0.54 v -1.55 c 3.51,0 3.89,-0.34 3.89,-2.78 v -8.88 c 0,-4.32 -2.39,-7.71 -6.03,-7.71 -4.17,0 -4.37,2.34 -4.37,4.93 v 16.53 l -7.33,-0.54 v -1.55 c 3.89,0 3.89,-0.14 3.89,-4.58 v -7.47 c 0,-3.89 0,-8.42 7.56,-8.42 2.8,0 4.99,1.39 6.44,4.49 z"
           id="path4509"
           style="fill:#000000;stroke-width:0" /><path
           d="m 538.59,409.98 0.02,-0.19 0.03,-0.18 0.04,-0.19 0.04,-0.18 0.05,-0.19 0.05,-0.18 0.07,-0.18 0.06,-0.18 0.08,-0.18 0.08,-0.17 0.09,-0.18 0.09,-0.16 0.1,-0.16 0.11,-0.16 0.11,-0.16 0.12,-0.14 0.13,-0.14 0.13,-0.14 0.14,-0.13 0.14,-0.12 0.15,-0.12 0.16,-0.1 0.16,-0.1 0.17,-0.09 0.18,-0.08 0.18,-0.07 0.19,-0.06 0.19,-0.05 0.2,-0.04 0.2,-0.03 0.21,-0.02 0.22,-0.01 c 1.03,0 4.08,0.71 4.08,4.74 v 2.78 h -1.25 v -2.78 c 0,-2.89 -1.24,-3.19 -1.8,-3.19 -1.64,0 -1.84,2.23 -1.84,2.48 v 9.97 c 0,2.1 0,4.03 -1.78,5.88 -1.96,1.93 -4.44,2.73 -6.83,2.73 -4.09,0 -7.53,-2.33 -7.53,-5.62 0,-1.49 1,-2.35 2.29,-2.35 1.4,0 2.3,1 2.3,2.3 0,0.59 -0.25,2.23 -2.55,2.3 1.35,1.73 3.78,2.28 5.38,2.28 2.45,0 5.28,-1.94 5.28,-6.38 v -1.84 -1.05 -4.98 c 0,-4.74 -3.58,-6.42 -5.83,-6.42 -2.43,0 -4.48,1.75 -4.48,4.23 0,2.73 2.09,6.88 10.31,7.17 v 0 1.05 c -2.53,-0.14 -6.01,-0.3 -9.16,-1.8 -3.73,-1.69 -4.98,-4.28 -4.98,-6.47 0,-4.03 4.83,-5.28 7.97,-5.28 3.29,0 5.58,1.99 6.53,4.33 z"
           id="path4511"
           style="fill:#000000;stroke-width:0" /><path
           d="m 552.44,423.34 v -13.36 c 0,-2.23 -0.55,-2.23 -3.89,-2.23 v -1.55 c 1.75,0.05 4.28,0.16 5.62,0.16 1.3,0 3.89,-0.11 5.58,-0.16 v 1.55 c -3.33,0 -3.87,0 -3.87,2.23 v 9.17 c 0,5.19 3.53,7.97 6.71,7.97 3.14,0 3.69,-2.69 3.69,-5.53 v -11.61 c 0,-2.23 -0.55,-2.23 -3.89,-2.23 v -1.55 c 1.75,0.05 4.3,0.16 5.64,0.16 1.3,0 3.88,-0.11 5.58,-0.16 v 1.55 c -2.59,0 -3.84,0 -3.89,1.5 v 9.51 c 0,4.28 0,5.83 -1.55,7.61 -0.69,0.86 -2.34,1.84 -5.22,1.84 -3.64,0 -5.98,-2.14 -7.37,-5.21 v 5.21 l -7.03,-0.54 v -1.55 c 3.48,0 3.89,-0.34 3.89,-2.78 z"
           id="path4513"
           style="fill:#000000;stroke-width:0" /><path
           d="m 581.85,426.12 h 7.13 v 1.55 h -7.13 v 9.17 h -1.25 c -0.04,-4.08 -1.54,-9.42 -6.42,-9.61 v -1.11 h 4.24 v -13.75 c 0,-6.12 4.62,-6.72 6.42,-6.72 3.53,0 4.94,3.53 4.94,6.72 v 2.84 h -1.25 v -2.73 c 0,-3.69 -1.5,-5.58 -3.35,-5.58 -3.33,0 -3.33,4.53 -3.33,5.38 z"
           id="path4515"
           style="fill:#000000;stroke-width:0" /><path
           d="m 612.03,410.14 v -4.49 l 7.17,0.55 v 1.55 c -3.48,0 -3.89,0.34 -3.89,2.78 v 17.68 l -7.33,-0.54 v -1.55 c 3.5,0 3.9,-0.34 3.9,-2.78 v -8.88 c 0,-4.32 -2.4,-7.71 -6.04,-7.71 -4.17,0 -4.37,2.34 -4.37,4.93 v 16.53 l -7.33,-0.54 v -1.55 c 3.89,0 3.89,-0.14 3.89,-4.58 v -7.47 c 0,-3.89 0,-8.42 7.56,-8.42 2.8,0 4.99,1.39 6.44,4.49 z"
           id="path4517"
           style="fill:#000000;stroke-width:0" /><path
           d="m 625.75,423.34 v -13.36 c 0,-2.23 -0.55,-2.23 -3.89,-2.23 v -1.55 c 1.75,0.05 4.28,0.16 5.62,0.16 1.3,0 3.9,-0.11 5.58,-0.16 v 1.55 c -3.33,0 -3.87,0 -3.87,2.23 v 9.17 c 0,5.19 3.53,7.97 6.72,7.97 3.14,0 3.68,-2.69 3.68,-5.53 v -11.61 c 0,-2.23 -0.54,-2.23 -3.89,-2.23 v -1.55 c 1.75,0.05 4.3,0.16 5.64,0.16 1.3,0 3.88,-0.11 5.58,-0.16 v 1.55 c -3.34,0 -3.89,0 -3.89,2.23 v 9.17 c 0,5.19 3.55,7.97 6.74,7.97 3.14,0 3.68,-2.69 3.68,-5.53 v -11.61 c 0,-2.23 -0.54,-2.23 -3.89,-2.23 v -1.55 c 1.74,0.05 4.28,0.16 5.63,0.16 1.29,0 3.89,-0.11 5.58,-0.16 v 1.55 c -2.58,0 -3.83,0 -3.88,1.5 v 9.51 c 0,4.28 0,5.83 -1.55,7.61 -0.7,0.86 -2.34,1.84 -5.23,1.84 -4.19,0 -6.38,-2.98 -7.22,-4.87 -0.7,4.33 -4.39,4.87 -6.62,4.87 -3.65,0 -5.99,-2.14 -7.38,-5.21 v 5.21 l -7.03,-0.54 v -1.55 c 3.48,0 3.89,-0.34 3.89,-2.78 z"
           id="path4519"
           style="fill:#000000;stroke-width:0" /><path
           d="m 688.71,415.87 0.11,-0.02 0.13,-0.02 0.14,-0.03 0.15,-0.04 0.17,-0.04 0.18,-0.04 0.19,-0.05 0.2,-0.06 0.2,-0.06 0.22,-0.07 0.21,-0.08 0.22,-0.08 0.22,-0.1 0.22,-0.1 0.22,-0.11 0.22,-0.12 0.22,-0.14 0.21,-0.14 0.2,-0.15 0.2,-0.16 0.19,-0.18 0.18,-0.19 0.17,-0.2 0.16,-0.21 0.14,-0.22 0.07,-0.12 0.06,-0.12 0.06,-0.13 0.05,-0.12 0.05,-0.14 0.05,-0.13 0.04,-0.14 0.03,-0.14 0.03,-0.15 0.03,-0.15 0.02,-0.16 0.01,-0.15 0.01,-0.17 0.01,-0.16 c 0,-2.53 -1.75,-4.53 -5.63,-4.53 -4.19,0 -5.99,2.84 -6.94,7.07 -0.14,0.64 -0.18,0.85 -0.68,0.85 -0.66,0 -0.66,-0.35 -0.66,-1.25 v -6.58 c 0,-0.84 0,-1.19 0.54,-1.19 0.25,0 0.3,0.05 1.25,1 0.1,0.1 0.1,0.19 1,1.14 2.19,-2.09 4.44,-2.14 5.49,-2.14 5.72,0 8.01,3.35 8.01,6.92 0,2.64 -1.5,4.14 -2.09,4.74 -1.64,1.59 -3.59,2 -5.69,2.39 -2.78,0.55 -6.12,1.2 -6.12,4.09 0,1.74 1.3,3.78 5.58,3.78 5.48,0 5.73,-4.48 5.82,-6.03 0.07,-0.45 0.5,-0.45 0.62,-0.45 0.63,0 0.63,0.25 0.63,1.2 v 5.03 c 0,0.85 0,1.19 -0.54,1.19 -0.25,0 -0.34,0 -1,-0.59 -0.14,-0.21 -0.64,-0.64 -0.84,-0.8 -1.9,1.39 -3.94,1.39 -4.69,1.39 -6.08,0 -7.97,-3.33 -7.97,-6.12 0,-1.74 0.79,-3.14 2.14,-4.24 1.59,-1.29 3,-1.59 6.58,-2.28 z"
           id="path4521"
           style="fill:#000000;stroke-width:0" /><path
           d="m 706.65,426.12 h 7.13 v 1.55 h -7.13 v 9.17 h -1.25 c -0.05,-4.08 -1.55,-9.42 -6.42,-9.61 v -1.11 h 4.24 v -13.75 c 0,-6.12 4.62,-6.72 6.42,-6.72 3.53,0 4.93,3.53 4.93,6.72 v 2.84 h -1.25 v -2.73 c 0,-3.69 -1.5,-5.58 -3.34,-5.58 -3.33,0 -3.33,4.53 -3.33,5.38 z"
           id="path4523"
           style="fill:#000000;stroke-width:0" /><path
           d="m 733.94,409.98 0.02,-0.19 0.03,-0.18 0.04,-0.19 0.04,-0.18 0.05,-0.19 0.05,-0.18 0.06,-0.18 0.07,-0.18 0.08,-0.18 0.08,-0.17 0.09,-0.18 0.09,-0.16 0.1,-0.16 0.11,-0.16 0.11,-0.16 0.12,-0.14 0.13,-0.14 0.13,-0.14 0.14,-0.13 0.14,-0.12 0.15,-0.12 0.16,-0.1 0.16,-0.1 0.17,-0.09 0.17,-0.08 0.19,-0.07 0.18,-0.06 0.2,-0.05 0.2,-0.04 0.2,-0.03 0.21,-0.02 0.22,-0.01 c 1.03,0 4.08,0.71 4.08,4.74 v 2.78 h -1.25 v -2.78 c 0,-2.89 -1.24,-3.19 -1.8,-3.19 -1.64,0 -1.84,2.23 -1.84,2.48 v 9.97 c 0,2.1 0,4.03 -1.79,5.88 -1.95,1.93 -4.43,2.73 -6.82,2.73 -4.1,0 -7.53,-2.33 -7.53,-5.62 0,-1.49 1,-2.35 2.29,-2.35 1.39,0 2.3,1 2.3,2.3 0,0.59 -0.25,2.23 -2.55,2.3 1.35,1.73 3.78,2.28 5.38,2.28 2.45,0 5.28,-1.94 5.28,-6.38 v -1.84 -1.05 -4.98 c 0,-4.74 -3.58,-6.42 -5.83,-6.42 -2.44,0 -4.48,1.75 -4.48,4.23 0,2.73 2.09,6.88 10.31,7.17 v 0 1.05 c -2.53,-0.14 -6.02,-0.3 -9.16,-1.8 -3.73,-1.69 -4.98,-4.28 -4.98,-6.47 0,-4.03 4.83,-5.28 7.97,-5.28 3.29,0 5.57,1.99 6.53,4.33 z"
           id="path4525"
           style="fill:#000000;stroke-width:0" /><path
           d="m 750.93,426.12 h 7.12 v 1.55 h -7.12 v 9.17 h -1.25 c -0.05,-4.08 -1.55,-9.42 -6.43,-9.61 v -1.11 h 4.24 v -13.75 c 0,-6.12 4.62,-6.72 6.42,-6.72 3.53,0 4.94,3.53 4.94,6.72 v 2.84 h -1.25 v -2.73 c 0,-3.69 -1.5,-5.58 -3.35,-5.58 -3.32,0 -3.32,4.53 -3.32,5.38 z"
           id="path4527"
           style="fill:#000000;stroke-width:0" /><path
           d="m 767.15,417.71 0.05,1.05 c 0.29,7.42 4.48,8.66 6.18,8.66 5.13,0 5.63,-6.72 5.63,-8.66 H 767.2 l -0.05,-1.05 h 13.9 c 1.1,0 1.24,0 1.24,1.05 0,4.92 -2.69,9.75 -8.91,9.75 -5.78,0 -10.37,-5.12 -10.37,-11.36 0,-6.67 5.23,-11.5 10.97,-11.5 6.07,0 8.31,5.53 8.31,6.47 0,0.5 -0.39,0.61 -0.64,0.61 -0.45,0 -0.55,-0.3 -0.66,-0.7 -1.73,-5.13 -6.22,-5.13 -6.72,-5.13 -2.5,0 -4.48,1.49 -5.62,3.33 -1.5,2.39 -1.5,5.69 -1.5,7.48 z"
           id="path4529"
           style="fill:#000000;stroke-width:0" /></g>    </g>
    <g
       id="g4578"
       transform="translate(30.032461,-71.261863)">
      <g
         word-spacing="normal"
         letter-spacing="normal"
         font-size-adjust="none"
         font-stretch="normal"
         font-weight="normal"
         font-variant="normal"
         font-style="normal"
         stroke-miterlimit="10.433"
         xml:space="preserve"
         transform="matrix(0.3,0,0,-0.3,-52.5,222.75)"
         id="g4576"
         style="font-style:normal;font-variant:normal;font-weight:normal;font-stretch:normal;letter-spacing:normal;word-spacing:normal;text-anchor:start;fill:none;fill-opacity:1;fill-rule:evenodd;stroke:#000000;stroke-linecap:butt;stroke-linejoin:miter;stroke-miterlimit:10.43299961;stroke-dasharray:none;stroke-dashoffset:0;stroke-opacity:1"><path
           id="path4570"
           d="m 463.44,441.78 v 0.16 0.17 l -0.01,0.16 v 0.08 0.08 l -0.01,0.08 -0.01,0.08 -0.01,0.07 -0.01,0.07 -0.02,0.07 -0.01,0.07 -0.02,0.07 -0.02,0.06 -0.03,0.06 -0.03,0.06 -0.03,0.06 -0.03,0.05 -0.04,0.05 -0.04,0.05 -0.05,0.04 -0.05,0.04 -0.03,0.01 -0.03,0.02 -0.03,0.02 -0.03,0.01 -0.03,0.01 -0.03,0.02 -0.03,0.01 -0.04,0.01 -0.04,0.01 -0.03,0.01 h -0.04 l -0.04,0.01 h -0.04 l -0.05,0.01 h -0.04 -0.05 c -1,0 -1,-0.89 -1,-1.78 v -46.24 c 0,-0.9 0,-1.79 1,-1.79 1,0 1,0.89 1,1.79 z"
           style="fill:#000000;stroke-width:0" /><path
           id="path4572"
           d="m 493.33,439.48 0.01,0.02 v 0.02 l 0.01,0.04 0.01,0.04 0.01,0.05 0.02,0.04 0.01,0.05 0.01,0.05 0.01,0.05 0.01,0.05 0.01,0.05 0.01,0.05 0.01,0.05 v 0.05 l 0.01,0.04 v 0.05 0.03 0.02 c 0,0.5 -0.34,0.55 -0.59,0.55 -0.5,0 -0.55,-0.11 -0.75,-1 l -8.27,-32.94 c -3.78,0.45 -5.67,2.3 -5.67,5.59 0,0.99 0,2.28 2.69,9.27 0.2,0.59 0.55,1.44 0.55,2.44 0,2.23 -1.6,4.07 -4.1,4.07 -4.73,0 -6.58,-7.21 -6.58,-7.67 0,-0.5 0.5,-0.5 0.61,-0.5 0.5,0 0.55,0.11 0.8,0.91 1.34,4.73 3.33,6.17 5.03,6.17 0.39,0 1.25,0 1.25,-1.59 0,-1.3 -0.5,-2.53 -1.15,-4.28 -2.4,-6.29 -2.4,-7.58 -2.4,-8.43 0,-4.73 3.9,-6.78 8.68,-7.07 -0.41,-1.79 -0.41,-1.89 -1.1,-4.54 -0.15,-0.54 -1.15,-4.57 -1.15,-4.73 0,-0.05 0,-0.5 0.61,-0.5 0.09,0 0.34,0 0.43,0.2 0.16,0.1 0.46,1.35 0.61,2.05 l 1.89,7.42 c 1.85,0 6.22,0 10.91,5.33 2.05,2.3 3.09,4.48 3.64,5.98 0.45,1.24 1.55,5.58 1.55,7.77 0,2.8 -1.35,3.48 -2.21,3.48 -1.23,0 -2.48,-1.29 -2.48,-2.39 0,-0.64 0.3,-0.93 0.75,-1.34 0.55,-0.55 1.8,-1.84 1.8,-4.23 0,-3.19 -2.6,-7.27 -4.35,-9.07 -4.37,-4.43 -7.56,-4.43 -9.36,-4.43 z"
           style="fill:#000000;stroke-width:0" /><path
           id="path4574"
           d="m 517.11,417.81 0.01,0.03 0.01,0.02 0.01,0.03 0.01,0.02 0.01,0.03 0.01,0.02 0.01,0.03 0.01,0.02 0.01,0.02 0.01,0.02 0.01,0.02 v 0.03 l 0.02,0.03 0.01,0.04 0.02,0.04 0.01,0.03 0.01,0.03 0.01,0.03 0.01,0.03 v 0.02 l 0.01,0.03 0.01,0.02 v 0.02 l 0.01,0.02 v 0.02 l 0.01,0.02 v 0.02 0.01 0.02 l 0.01,0.01 v 0.02 0.01 0.03 0.03 0.02 c 0,0.16 0,0.25 -0.25,0.85 l -8.72,22.92 c -0.3,0.84 -0.59,1.14 -1.14,1.14 -0.55,0 -1,-0.44 -1,-0.99 0,-0.15 0,-0.25 0.25,-0.79 l 8.83,-23.13 -8.83,-23.01 c -0.25,-0.55 -0.25,-0.64 -0.25,-0.89 0,-0.55 0.45,-1 1,-1 0.66,0 0.84,0.5 1.05,1 z"
           style="fill:#000000;stroke-width:0" /></g>    </g>
    <g
       transform="translate(57.680312,-71.191785)"
       id="g4632">
      <g
         style="font-style:normal;font-variant:normal;font-weight:normal;font-stretch:normal;letter-spacing:normal;word-spacing:normal;text-anchor:start;fill:none;fill-opacity:1;fill-rule:evenodd;stroke:#000000;stroke-linecap:butt;stroke-linejoin:miter;stroke-miterlimit:10.43299961;stroke-dasharray:none;stroke-dashoffset:0;stroke-opacity:1"
         id="g4630"
         transform="matrix(0.3,0,0,-0.3,-52.5,222.75)"
         xml:space="preserve"
         stroke-miterlimit="10.433"
         font-style="normal"
         font-variant="normal"
         font-weight="normal"
         font-stretch="normal"
         font-size-adjust="none"
         letter-spacing="normal"
         word-spacing="normal"><path
           style="fill:#000000;stroke-width:0"
           d="m 482.82,417.65 h 0.16 0.16 l 0.16,0.01 h 0.08 l 0.07,0.01 h 0.08 l 0.07,0.01 0.08,0.01 0.07,0.01 0.07,0.02 0.06,0.02 0.07,0.02 0.06,0.02 0.06,0.02 0.06,0.03 0.06,0.03 0.05,0.04 0.05,0.03 0.04,0.05 0.05,0.04 0.03,0.05 0.02,0.03 0.02,0.03 0.01,0.03 0.02,0.03 0.01,0.03 0.01,0.03 0.02,0.04 0.01,0.03 0.01,0.04 v 0.04 l 0.01,0.04 0.01,0.04 v 0.04 0.04 l 0.01,0.05 v 0.04 c 0,1 -0.89,1 -1.75,1 h -21.13 c 0.61,6.67 6.33,11.46 13.36,11.46 h 7.77 c 0.86,0 1.75,0 1.75,1 0,1 -0.89,1 -1.75,1 h -7.86 c -8.53,0 -15.3,-6.49 -15.3,-14.46 0,-7.97 6.77,-14.45 15.3,-14.45 h 7.86 c 0.86,0 1.75,0 1.75,1 0,1 -0.89,1 -1.75,1 h -7.77 c -7.03,0 -12.75,4.78 -13.36,11.45 z"
           id="path4626" /><path
           style="fill:#000000;stroke-width:0"
           d="m 519.04,422.89 0.25,0.88 0.24,0.91 0.24,0.91 0.23,0.92 0.22,0.92 0.22,0.92 0.21,0.91 0.19,0.91 c 0.59,3.33 0.95,6.67 0.95,7.26 0,2.8 -2.75,2.8 -3.34,2.8 -3.78,0 -7.17,-1.39 -9.52,-3 -4.03,-2.73 -5.32,-6.08 -5.32,-6.31 0,-0.36 0.34,-0.36 0.5,-0.36 0.39,0 2.73,0.59 3.78,2.5 1.34,2.53 2.79,4.42 7.28,4.42 2.03,0 2.39,-1.39 2.39,-2.19 0,-0.04 -0.16,-2.39 -0.75,-5.83 -0.25,-1.39 -0.41,-2.29 -1.46,-6.57 h -1.78 c -1.4,-0.05 -3.68,-1.64 -3.68,-2.39 0,-0.3 0.04,-0.35 1.14,-0.35 h 3.59 c -1.05,-3.48 -2.45,-8.28 -4.73,-14.36 -0.46,-1.14 -0.46,-1.23 -0.46,-1.28 0,-0.36 0.41,-0.36 0.5,-0.36 0.71,0 2.24,0.66 3.24,1.64 0.25,0.32 0.34,0.41 0.55,0.91 1.75,4.37 3.23,8.86 4.53,13.45 h 11.22 c 0.54,0 1.48,0 2.29,0.5 -0.56,-2.09 -2.59,-10.22 -2.59,-14.15 0,-1.44 0.84,-2.74 2.98,-2.74 6.63,0 10.32,4.13 10.32,5.72 0,0.31 -0.25,0.41 -0.5,0.41 -0.4,0 -3.04,-0.71 -3.79,-2.64 -0.2,-0.41 -0.25,-0.46 -1.2,-0.6 -0.55,-0.11 -1.48,-0.15 -1.55,-0.15 -0.89,0 -2.03,0.59 -2.03,2.14 0,0.61 0.35,3.34 0.5,4.43 0.85,5.54 3.28,14.89 7.57,26.25 0.15,0.36 0.15,0.46 0.15,0.55 0,0.36 -0.3,0.36 -0.5,0.36 -0.75,0 -2.19,-0.7 -3.14,-1.55 -0.05,-0.09 -0.34,-0.34 -0.55,-0.79 -2,-4.89 -3.53,-9.93 -5.03,-15 z"
           id="path4628" /></g>    </g>
    <g
       id="g4718"
       transform="translate(-78.423143,-45.786095)">
      <g
         word-spacing="normal"
         letter-spacing="normal"
         font-size-adjust="none"
         font-stretch="normal"
         font-weight="normal"
         font-variant="normal"
         font-style="normal"
         stroke-miterlimit="10.433"
         xml:space="preserve"
         transform="matrix(0.3,0,0,-0.3,-52.5,222.75)"
         id="g4716"
         style="font-style:normal;font-variant:normal;font-weight:normal;font-stretch:normal;letter-spacing:normal;word-spacing:normal;text-anchor:start;fill:none;fill-opacity:1;fill-rule:evenodd;stroke:#000000;stroke-linecap:butt;stroke-linejoin:miter;stroke-miterlimit:10.43299961;stroke-dasharray:none;stroke-dashoffset:0;stroke-opacity:1"><path
           id="path4688"
           d="m 467.52,439.14 -0.02,0.05 -0.02,0.05 -0.02,0.04 -0.02,0.05 -0.04,0.09 -0.03,0.08 -0.04,0.07 -0.03,0.07 -0.04,0.07 -0.04,0.06 -0.03,0.05 -0.04,0.05 -0.03,0.05 -0.04,0.04 -0.04,0.04 -0.04,0.04 -0.04,0.03 -0.04,0.02 -0.05,0.03 -0.05,0.02 -0.05,0.02 -0.05,0.01 -0.06,0.02 -0.06,0.01 -0.06,0.01 h -0.06 l -0.07,0.01 h -0.08 l -0.08,0.01 h -0.08 -0.09 -0.09 -0.1 -0.1 -8.43 v -1.55 h 1.21 c 3.82,0 3.92,-0.54 3.92,-2.34 v -24.91 c 0,-1.34 0,-3.68 -5.13,-3.68 v -1.55 c 1.75,0.05 4.19,0.16 5.83,0.16 1.64,0 4.1,-0.11 5.83,-0.16 v 1.55 c -5.13,0 -5.13,2.34 -5.13,3.68 v 26.85 h 0.05 l 12,-30.99 c 0.25,-0.64 0.5,-1.09 1,-1.09 0.55,0 0.7,0.41 0.89,0.95 l 12.27,31.53 h 0.04 v -28.59 c 0,-1.8 -0.09,-2.34 -3.93,-2.34 h -1.19 v -1.55 c 1.84,0.16 5.22,0.16 7.17,0.16 1.94,0 5.28,0 7.13,-0.16 v 1.55 h -1.21 c -3.82,0 -3.93,0.54 -3.93,2.34 v 26.25 c 0,1.8 0.11,2.34 3.93,2.34 h 1.21 v 1.55 h -8.43 c -1.29,0 -1.29,-0.05 -1.64,-0.95 l -10.92,-28.05 z"
           style="fill:#000000;stroke-width:0" /><path
           id="path4690"
           d="m 517.83,409.98 0.02,-0.19 0.03,-0.18 0.04,-0.19 0.04,-0.18 0.05,-0.19 0.06,-0.18 0.06,-0.18 0.07,-0.18 0.07,-0.18 0.08,-0.17 0.09,-0.18 0.09,-0.16 0.1,-0.16 0.11,-0.16 0.12,-0.16 0.11,-0.14 0.13,-0.14 0.13,-0.14 0.14,-0.13 0.15,-0.12 0.15,-0.12 0.15,-0.1 0.17,-0.1 0.16,-0.09 0.18,-0.08 0.18,-0.07 0.19,-0.06 0.19,-0.05 0.2,-0.04 0.21,-0.03 0.21,-0.02 0.21,-0.01 c 1.03,0 4.08,0.71 4.08,4.74 v 2.78 h -1.25 v -2.78 c 0,-2.89 -1.23,-3.19 -1.8,-3.19 -1.64,0 -1.84,2.23 -1.84,2.48 v 9.97 c 0,2.1 0,4.03 -1.78,5.88 -1.95,1.93 -4.44,2.73 -6.83,2.73 -4.09,0 -7.53,-2.33 -7.53,-5.62 0,-1.49 1,-2.35 2.3,-2.35 1.39,0 2.29,1 2.29,2.3 0,0.59 -0.25,2.23 -2.54,2.3 1.34,1.73 3.78,2.28 5.37,2.28 2.46,0 5.28,-1.94 5.28,-6.38 v -1.84 -1.05 -4.98 c 0,-4.74 -3.57,-6.42 -5.83,-6.42 -2.43,0 -4.48,1.75 -4.48,4.23 0,2.73 2.09,6.88 10.31,7.17 v 0 1.05 c -2.53,-0.14 -6.01,-0.3 -9.15,-1.8 -3.74,-1.69 -4.99,-4.28 -4.99,-6.47 0,-4.03 4.83,-5.28 7.97,-5.28 3.3,0 5.58,1.99 6.53,4.33 z"
           style="fill:#000000;stroke-width:0" /><path
           id="path4692"
           d="m 531.68,423.34 v -13.36 c 0,-2.23 -0.55,-2.23 -3.89,-2.23 v -1.55 c 1.75,0.05 4.28,0.16 5.62,0.16 1.3,0 3.89,-0.11 5.58,-0.16 v 1.55 c -3.33,0 -3.87,0 -3.87,2.23 v 9.17 c 0,5.19 3.53,7.97 6.72,7.97 3.14,0 3.68,-2.69 3.68,-5.53 v -11.61 c 0,-2.23 -0.54,-2.23 -3.89,-2.23 v -1.55 c 1.75,0.05 4.3,0.16 5.64,0.16 1.3,0 3.88,-0.11 5.58,-0.16 v 1.55 c -2.59,0 -3.84,0 -3.89,1.5 v 9.51 c 0,4.28 0,5.83 -1.55,7.61 -0.68,0.86 -2.34,1.84 -5.21,1.84 -3.65,0 -5.99,-2.14 -7.38,-5.21 v 5.21 l -7.03,-0.54 v -1.55 c 3.48,0 3.89,-0.34 3.89,-2.78 z"
           style="fill:#000000;stroke-width:0" /><path
           id="path4694"
           d="m 573.15,422.93 0.06,0.15 0.06,0.14 0.07,0.14 0.06,0.13 0.07,0.12 0.07,0.13 0.07,0.12 0.07,0.11 0.15,0.22 0.16,0.2 0.15,0.19 0.16,0.18 0.17,0.16 0.16,0.14 0.17,0.14 0.17,0.12 0.17,0.11 0.17,0.1 0.17,0.09 0.17,0.09 0.17,0.07 0.17,0.06 0.16,0.05 0.16,0.05 0.15,0.04 0.16,0.03 0.14,0.03 0.15,0.02 0.13,0.02 0.13,0.02 0.12,0.01 h 0.12 l 0.11,0.01 h 0.1 0.09 0.07 v 1.55 c -1.15,-0.1 -2.59,-0.14 -3.73,-0.14 -0.9,0 -3.25,0.09 -4.34,0.14 v -1.55 c 1.54,-0.05 2.34,-0.89 2.34,-2.14 0,-0.5 -0.05,-0.59 -0.3,-1.19 l -5.03,-12.26 -5.53,13.4 c -0.2,0.5 -0.29,0.71 -0.29,0.91 0,1.28 1.84,1.28 2.78,1.28 v 1.55 c -1.28,-0.05 -4.58,-0.14 -5.43,-0.14 -1.34,0 -3.34,0.04 -4.82,0.14 v -1.55 c 2.39,0 3.32,0 4.03,-1.73 l 7.47,-18.19 c -0.25,-0.64 -0.94,-2.3 -1.25,-2.94 -1.1,-2.73 -2.49,-6.19 -5.68,-6.19 -0.25,0 -1.39,0 -2.34,0.91 1.55,0.2 1.94,1.3 1.94,2.09 0,1.3 -0.94,2.1 -2.08,2.1 -1,0 -2.09,-0.66 -2.09,-2.14 0,-2.25 2.09,-4.05 4.57,-4.05 3.15,0 5.19,2.84 6.38,5.69 z"
           style="fill:#000000;stroke-width:0" /><polygon
           id="polygon4696"
           points="592.5,415.51 592.5,418.4 579.3,418.4 579.3,415.51 "
           style="fill:#000000;stroke-width:0" /><path
           id="path4698"
           d="m 618.12,423.98 0.45,0.1 0.44,0.1 0.43,0.13 0.43,0.13 0.41,0.14 0.4,0.16 0.4,0.17 0.38,0.18 0.37,0.19 0.36,0.2 0.35,0.21 0.33,0.21 0.32,0.23 0.31,0.24 0.3,0.25 0.28,0.25 0.27,0.26 0.25,0.27 0.24,0.28 0.22,0.28 0.21,0.29 0.19,0.3 0.17,0.3 0.16,0.31 0.14,0.32 0.12,0.32 0.11,0.32 0.08,0.33 0.07,0.34 0.05,0.33 0.03,0.34 0.01,0.35 c 0,4.33 -4.59,8.42 -11.06,8.42 l -0.36,-1.55 c 4.84,0 6.58,-4.23 6.58,-6.87 0,-3.19 -2.44,-7.38 -7.97,-7.38 h -7.22 v -1.09 h 9.36 c 4.94,0 7.03,-4.64 7.03,-7.97 0,-3.55 -2.59,-7.62 -7.72,-7.62 v 0 h -6.23 c -2.34,0 -2.44,0.34 -2.44,1.98 v 13.61 1.09 12.25 c 0,1.66 0.1,2 2.44,2 h 6.17 l 0.36,1.55 H 597.1 v -1.55 h 1.19 c 3.85,0 3.94,-0.54 3.94,-2.34 v -26.25 c 0,-1.8 -0.09,-2.34 -3.94,-2.34 h -1.19 v -1.55 h 19.54 c 6.62,0 11.11,4.44 11.11,9.12 0,4.33 -4.1,8.07 -9.63,8.66 z"
           style="fill:#000000;stroke-width:0" /><path
           id="path4700"
           d="m 654.05,416.86 -0.01,0.59 -0.04,0.59 -0.07,0.58 -0.1,0.57 -0.13,0.56 -0.14,0.55 -0.18,0.54 -0.2,0.53 -0.22,0.51 -0.25,0.5 -0.26,0.49 -0.29,0.47 -0.31,0.46 -0.33,0.44 -0.35,0.43 -0.36,0.4 -0.39,0.39 -0.4,0.37 -0.41,0.35 -0.44,0.32 -0.44,0.31 -0.46,0.28 -0.48,0.26 -0.49,0.24 -0.49,0.21 -0.51,0.18 -0.53,0.16 -0.53,0.13 -0.54,0.11 -0.54,0.07 -0.56,0.05 -0.56,0.01 -0.05,-1.09 c 2.19,0 4.33,-1.1 5.63,-3.24 1.29,-2.14 1.29,-5.03 1.29,-6.92 0,-1.8 0,-4.48 -1.09,-6.67 -1.09,-2.25 -3.28,-3.69 -5.78,-3.69 v 0 c -2.14,0 -4.33,1.05 -5.67,3.33 -1.25,2.2 -1.25,5.23 -1.25,7.03 0,1.94 0,4.63 1.18,6.83 1.36,2.28 3.69,3.33 5.69,3.33 l 0.05,1.09 c -6.22,0 -11.06,-5.42 -11.06,-11.65 0,-6.43 5.18,-11.21 11.01,-11.21 6.03,0 11.06,4.88 11.06,11.21 z"
           style="fill:#000000;stroke-width:0" /><path
           id="path4702"
           d="m 675.92,408.93 v -3.28 l 7.31,0.55 v 1.55 c -3.48,0 -3.87,0.34 -3.87,2.78 v 30.25 l -7.17,-0.55 v -1.55 c 3.48,0 3.87,-0.34 3.87,-2.79 v -10.75 c -1.44,1.78 -3.58,3.07 -6.28,3.07 l 0.2,-1.09 c 1.75,0 3.85,-0.75 5.4,-2.98 0.54,-0.85 0.54,-0.96 0.54,-1.85 v 0 -10.22 c 0,-0.89 0,-1 -0.54,-1.84 -1.5,-2.39 -3.76,-3.48 -5.9,-3.48 -2.23,0 -4.03,1.29 -5.21,3.18 -1.3,2.05 -1.46,4.89 -1.46,6.93 0,1.84 0.1,4.84 1.55,7.07 1.05,1.55 2.94,3.19 5.62,3.19 l -0.2,1.09 c -5.87,0 -11.11,-4.87 -11.11,-11.29 0,-6.33 4.89,-11.27 10.56,-11.27 3.19,0 5.44,1.69 6.69,3.28 z"
           style="fill:#000000;stroke-width:0" /><path
           id="path4704"
           d="m 705.38,422.93 0.06,0.15 0.06,0.14 0.07,0.14 0.06,0.13 0.07,0.12 0.07,0.13 0.07,0.12 0.07,0.11 0.15,0.22 0.16,0.2 0.15,0.19 0.17,0.18 0.16,0.16 0.17,0.14 0.16,0.14 0.17,0.12 0.17,0.11 0.17,0.1 0.17,0.09 0.17,0.09 0.17,0.07 0.17,0.06 0.16,0.05 0.16,0.05 0.16,0.04 0.15,0.03 0.14,0.03 0.15,0.02 0.13,0.02 0.13,0.02 0.13,0.01 h 0.11 l 0.11,0.01 h 0.1 0.09 0.08 v 1.55 c -1.16,-0.1 -2.6,-0.14 -3.74,-0.14 -0.9,0 -3.25,0.09 -4.34,0.14 v -1.55 c 1.54,-0.05 2.34,-0.89 2.34,-2.14 0,-0.5 -0.05,-0.59 -0.3,-1.19 l -5.03,-12.26 -5.53,13.4 c -0.2,0.5 -0.3,0.71 -0.3,0.91 0,1.28 1.85,1.28 2.79,1.28 v 1.55 c -1.29,-0.05 -4.58,-0.14 -5.43,-0.14 -1.34,0 -3.34,0.04 -4.82,0.14 v -1.55 c 2.39,0 3.32,0 4.03,-1.73 l 7.47,-18.19 c -0.25,-0.64 -0.94,-2.3 -1.25,-2.94 -1.1,-2.73 -2.49,-6.19 -5.68,-6.19 -0.25,0 -1.39,0 -2.34,0.91 1.55,0.2 1.94,1.3 1.94,2.09 0,1.3 -0.94,2.1 -2.08,2.1 -1,0 -2.09,-0.66 -2.09,-2.14 0,-2.25 2.09,-4.05 4.57,-4.05 3.15,0 5.19,2.84 6.38,5.69 z"
           style="fill:#000000;stroke-width:0" /><path
           id="path4706"
           d="m 744.81,425.53 -6.37,1.54 c -3.1,0.75 -5.03,3.44 -5.03,6.33 0,3.49 2.68,6.53 6.57,6.53 8.32,0 9.41,-8.17 9.71,-10.42 0.04,-0.3 0.04,-0.59 0.61,-0.59 0.64,0 0.64,0.25 0.64,1.2 v 10 c 0,0.86 0,1.2 -0.55,1.2 -0.34,0 -0.41,-0.04 -0.75,-0.65 l -1.73,-2.83 c -1.5,1.44 -3.55,3.48 -7.99,3.48 -5.53,0 -9.7,-4.39 -9.7,-9.67 0,-4.12 2.64,-7.76 6.51,-9.11 0.55,-0.2 3.1,-0.79 6.58,-1.64 1.35,-0.36 2.85,-0.7 4.24,-2.54 1.04,-1.3 1.54,-2.94 1.54,-4.58 0,-3.55 -2.48,-7.13 -6.67,-7.13 -1.45,0 -5.23,0.25 -7.87,2.69 -2.89,2.69 -3.05,5.87 -3.1,7.67 -0.04,0.5 -0.43,0.5 -0.59,0.5 -0.64,0 -0.64,-0.36 -0.64,-1.25 v -9.97 c 0,-0.84 0,-1.18 0.55,-1.18 0.34,0 0.39,0.09 0.73,0.64 0,0.04 0.16,0.2 1.8,2.84 1.54,-1.69 4.73,-3.48 9.17,-3.48 5.83,0 9.81,4.87 9.81,10.35 0,4.99 -3.28,9.07 -7.47,10.07 z"
           style="fill:#000000;stroke-width:0" /><path
           id="path4708"
           d="m 763.77,426.12 h 7.12 v 1.55 h -7.12 v 9.17 h -1.25 c -0.05,-4.08 -1.55,-9.42 -6.43,-9.61 v -1.11 h 4.24 v -13.75 c 0,-6.12 4.62,-6.72 6.42,-6.72 3.53,0 4.94,3.53 4.94,6.72 v 2.84 h -1.25 v -2.73 c 0,-3.69 -1.5,-5.58 -3.35,-5.58 -3.32,0 -3.32,4.53 -3.32,5.38 z"
           style="fill:#000000;stroke-width:0" /><path
           id="path4710"
           d="m 791.05,409.98 0.02,-0.19 0.03,-0.18 0.04,-0.19 0.04,-0.18 0.05,-0.19 0.05,-0.18 0.07,-0.18 0.06,-0.18 0.08,-0.18 0.08,-0.17 0.09,-0.18 0.09,-0.16 0.1,-0.16 0.11,-0.16 0.11,-0.16 0.12,-0.14 0.13,-0.14 0.13,-0.14 0.14,-0.13 0.14,-0.12 0.15,-0.12 0.16,-0.1 0.16,-0.1 0.17,-0.09 0.18,-0.08 0.18,-0.07 0.19,-0.06 0.19,-0.05 0.2,-0.04 0.2,-0.03 0.21,-0.02 0.22,-0.01 c 1.03,0 4.08,0.71 4.08,4.74 v 2.78 h -1.25 v -2.78 c 0,-2.89 -1.24,-3.19 -1.8,-3.19 -1.64,0 -1.84,2.23 -1.84,2.48 v 9.97 c 0,2.1 0,4.03 -1.78,5.88 -1.95,1.93 -4.44,2.73 -6.83,2.73 -4.09,0 -7.53,-2.33 -7.53,-5.62 0,-1.49 1,-2.35 2.29,-2.35 1.4,0 2.3,1 2.3,2.3 0,0.59 -0.25,2.23 -2.55,2.3 1.35,1.73 3.79,2.28 5.38,2.28 2.45,0 5.28,-1.94 5.28,-6.38 v -1.84 -1.05 -4.98 c 0,-4.74 -3.58,-6.42 -5.83,-6.42 -2.43,0 -4.48,1.75 -4.48,4.23 0,2.73 2.09,6.88 10.31,7.17 v 0 1.05 c -2.53,-0.14 -6.01,-0.3 -9.16,-1.8 -3.73,-1.69 -4.98,-4.28 -4.98,-6.47 0,-4.03 4.83,-5.28 7.97,-5.28 3.3,0 5.58,1.99 6.53,4.33 z"
           style="fill:#000000;stroke-width:0" /><path
           id="path4712"
           d="m 808.04,426.12 h 7.12 v 1.55 h -7.12 v 9.17 h -1.25 c -0.05,-4.08 -1.55,-9.42 -6.42,-9.61 v -1.11 h 4.23 v -13.75 c 0,-6.12 4.63,-6.72 6.42,-6.72 3.53,0 4.94,3.53 4.94,6.72 v 2.84 h -1.25 v -2.73 c 0,-3.69 -1.5,-5.58 -3.34,-5.58 -3.33,0 -3.33,4.53 -3.33,5.38 z"
           style="fill:#000000;stroke-width:0" /><path
           id="path4714"
           d="m 824.26,417.71 0.05,1.05 c 0.29,7.42 4.48,8.66 6.19,8.66 5.12,0 5.62,-6.72 5.62,-8.66 h -11.81 l -0.05,-1.05 h 13.91 c 1.09,0 1.23,0 1.23,1.05 0,4.92 -2.68,9.75 -8.9,9.75 -5.78,0 -10.38,-5.12 -10.38,-11.36 0,-6.67 5.23,-11.5 10.97,-11.5 6.08,0 8.31,5.53 8.31,6.47 0,0.5 -0.39,0.61 -0.64,0.61 -0.45,0 -0.54,-0.3 -0.66,-0.7 -1.73,-5.13 -6.21,-5.13 -6.71,-5.13 -2.5,0 -4.49,1.49 -5.63,3.33 -1.5,2.39 -1.5,5.69 -1.5,7.48 z"
           style="fill:#000000;stroke-width:0" /></g>    </g>
    <g
       transform="translate(139.23145,-46.647634)"
       id="g5158">
      <g
         style="font-style:normal;font-variant:normal;font-weight:normal;font-stretch:normal;letter-spacing:normal;word-spacing:normal;text-anchor:start;fill:none;fill-opacity:1;fill-rule:evenodd;stroke:#000000;stroke-linecap:butt;stroke-linejoin:miter;stroke-miterlimit:10.43299961;stroke-dasharray:none;stroke-dashoffset:0;stroke-opacity:1"
         id="g5156"
         transform="matrix(0.3,0,0,-0.3,-52.5,222.75)"
         xml:space="preserve"
         stroke-miterlimit="10.433"
         font-style="normal"
         font-variant="normal"
         font-weight="normal"
         font-stretch="normal"
         font-size-adjust="none"
         letter-spacing="normal"
         word-spacing="normal"><path
           style="fill:#000000;stroke-width:0"
           d="m 482.82,417.65 h 0.16 0.16 l 0.16,0.01 h 0.08 l 0.07,0.01 h 0.08 l 0.07,0.01 0.08,0.01 0.07,0.01 0.07,0.02 0.06,0.02 0.07,0.02 0.06,0.02 0.06,0.02 0.06,0.03 0.06,0.03 0.05,0.04 0.05,0.03 0.04,0.05 0.05,0.04 0.03,0.05 0.02,0.03 0.02,0.03 0.01,0.03 0.02,0.03 0.01,0.03 0.01,0.03 0.02,0.04 0.01,0.03 0.01,0.04 v 0.04 l 0.01,0.04 0.01,0.04 v 0.04 0.04 l 0.01,0.05 v 0.04 c 0,1 -0.89,1 -1.75,1 h -21.13 c 0.61,6.67 6.33,11.46 13.36,11.46 h 7.77 c 0.86,0 1.75,0 1.75,1 0,1 -0.89,1 -1.75,1 h -7.86 c -8.53,0 -15.3,-6.49 -15.3,-14.46 0,-7.97 6.77,-14.45 15.3,-14.45 h 7.86 c 0.86,0 1.75,0 1.75,1 0,1 -0.89,1 -1.75,1 h -7.77 c -7.03,0 -12.75,4.78 -13.36,11.45 z"
           id="path5136" /><path
           style="fill:#000000;stroke-width:0"
           d="m 519.04,422.89 0.25,0.88 0.24,0.91 0.24,0.91 0.23,0.92 0.22,0.92 0.22,0.92 0.21,0.91 0.19,0.91 c 0.59,3.33 0.95,6.67 0.95,7.26 0,2.8 -2.75,2.8 -3.34,2.8 -3.78,0 -7.17,-1.39 -9.52,-3 -4.03,-2.73 -5.32,-6.08 -5.32,-6.31 0,-0.36 0.34,-0.36 0.5,-0.36 0.39,0 2.73,0.59 3.78,2.5 1.34,2.53 2.79,4.42 7.28,4.42 2.03,0 2.39,-1.39 2.39,-2.19 0,-0.04 -0.16,-2.39 -0.75,-5.83 -0.25,-1.39 -0.41,-2.29 -1.46,-6.57 h -1.78 c -1.4,-0.05 -3.68,-1.64 -3.68,-2.39 0,-0.3 0.04,-0.35 1.14,-0.35 h 3.59 c -1.05,-3.48 -2.45,-8.28 -4.73,-14.36 -0.46,-1.14 -0.46,-1.23 -0.46,-1.28 0,-0.36 0.41,-0.36 0.5,-0.36 0.71,0 2.24,0.66 3.24,1.64 0.25,0.32 0.34,0.41 0.55,0.91 1.75,4.37 3.23,8.86 4.53,13.45 h 11.22 c 0.54,0 1.48,0 2.29,0.5 -0.56,-2.09 -2.59,-10.22 -2.59,-14.15 0,-1.44 0.84,-2.74 2.98,-2.74 6.63,0 10.32,4.13 10.32,5.72 0,0.31 -0.25,0.41 -0.5,0.41 -0.4,0 -3.04,-0.71 -3.79,-2.64 -0.2,-0.41 -0.25,-0.46 -1.2,-0.6 -0.55,-0.11 -1.48,-0.15 -1.55,-0.15 -0.89,0 -2.03,0.59 -2.03,2.14 0,0.61 0.35,3.34 0.5,4.43 0.85,5.54 3.28,14.89 7.57,26.25 0.15,0.36 0.15,0.46 0.15,0.55 0,0.36 -0.3,0.36 -0.5,0.36 -0.75,0 -2.19,-0.7 -3.14,-1.55 -0.05,-0.09 -0.34,-0.34 -0.55,-0.79 -2,-4.89 -3.53,-9.93 -5.03,-15 z"
           id="path5138" /><path
           style="fill:#000000;stroke-width:0"
           d="m 592.16,418.65 h -1.25 c 0,-3.83 -1.43,-7.47 -4.03,-10.4 l -10.4,10.4 10.36,10.42 -0.89,0.85 -10.38,-10.42 -9.91,9.87 c -0.11,0.09 -0.45,0.44 -0.45,0.55 0,0.2 4.03,4.08 10.31,4.08 1.75,0 6.33,-0.25 10.43,-4.08 l 0.89,-0.85 c 2.39,-2.54 4.07,-6.32 4.07,-10.42 h 1.25 c 0,9.17 -7.46,16.6 -16.59,16.6 -9.27,0 -16.64,-7.54 -16.64,-16.6 h 1.25 c 0,3.85 1.45,7.47 4.03,10.42 l 10.42,-10.42 0.89,-0.84 9.93,-9.86 c 0.09,-0.11 0.43,-0.45 0.43,-0.55 0,-0.2 -4.03,-4.09 -10.31,-4.09 -1.73,0 -6.33,0.25 -10.41,4.09 l 10.36,10.41 -0.89,0.84 -10.42,-10.4 c -3.03,3.39 -4.03,7.21 -4.03,10.4 h -1.25 c 0,-9.17 7.48,-16.59 16.59,-16.59 9.27,0 16.64,7.53 16.64,16.59 z"
           id="path5140" /><path
           style="fill:#000000;stroke-width:0"
           d="m 622.48,422.89 0.24,0.88 0.24,0.91 0.24,0.91 0.23,0.92 0.23,0.92 0.21,0.92 0.21,0.91 0.19,0.91 c 0.6,3.33 0.96,6.67 0.96,7.26 0,2.8 -2.75,2.8 -3.35,2.8 -3.78,0 -7.17,-1.39 -9.51,-3 -4.03,-2.73 -5.33,-6.08 -5.33,-6.31 0,-0.36 0.34,-0.36 0.5,-0.36 0.39,0 2.73,0.59 3.78,2.5 1.34,2.53 2.8,4.42 7.28,4.42 2.03,0 2.39,-1.39 2.39,-2.19 0,-0.04 -0.15,-2.39 -0.75,-5.83 -0.25,-1.39 -0.4,-2.29 -1.45,-6.57 h -1.78 c -1.41,-0.05 -3.69,-1.64 -3.69,-2.39 0,-0.3 0.05,-0.35 1.14,-0.35 h 3.59 c -1.04,-3.48 -2.45,-8.28 -4.73,-14.36 -0.45,-1.14 -0.45,-1.23 -0.45,-1.28 0,-0.36 0.4,-0.36 0.5,-0.36 0.7,0 2.23,0.66 3.23,1.64 0.25,0.32 0.35,0.41 0.55,0.91 1.75,4.37 3.23,8.86 4.53,13.45 h 11.22 c 0.55,0 1.48,0 2.3,0.5 -0.57,-2.09 -2.6,-10.22 -2.6,-14.15 0,-1.44 0.85,-2.74 2.99,-2.74 6.62,0 10.31,4.13 10.31,5.72 0,0.31 -0.25,0.41 -0.5,0.41 -0.39,0 -3.03,-0.71 -3.78,-2.64 -0.21,-0.41 -0.25,-0.46 -1.21,-0.6 -0.54,-0.11 -1.48,-0.15 -1.54,-0.15 -0.89,0 -2.03,0.59 -2.03,2.14 0,0.61 0.34,3.34 0.5,4.43 0.84,5.54 3.28,14.89 7.56,26.25 0.15,0.36 0.15,0.46 0.15,0.55 0,0.36 -0.29,0.36 -0.5,0.36 -0.75,0 -2.18,-0.7 -3.14,-1.55 -0.04,-0.09 -0.34,-0.34 -0.54,-0.79 -2,-4.89 -3.53,-9.93 -5.03,-15 z"
           id="path5142" /><path
           style="fill:#000000;stroke-width:0"
           d="m 695.6,418.65 h -1.25 c 0,-3.83 -1.44,-7.47 -4.03,-10.4 l -10.41,10.4 10.36,10.42 -0.89,0.85 -10.38,-10.42 -9.9,9.87 c -0.11,0.09 -0.45,0.44 -0.45,0.55 0,0.2 4.03,4.08 10.31,4.08 1.75,0 6.32,-0.25 10.42,-4.08 l 0.89,-0.85 c 2.39,-2.54 4.08,-6.32 4.08,-10.42 h 1.25 c 0,9.17 -7.47,16.6 -16.6,16.6 -9.26,0 -16.64,-7.54 -16.64,-16.6 h 1.25 c 0,3.85 1.46,7.47 4.04,10.42 l 10.42,-10.42 0.89,-0.84 9.92,-9.86 c 0.09,-0.11 0.44,-0.45 0.44,-0.55 0,-0.2 -4.04,-4.09 -10.32,-4.09 -1.73,0 -6.32,0.25 -10.4,4.09 l 10.36,10.41 -0.89,0.84 -10.42,-10.4 c -3.04,3.39 -4.04,7.21 -4.04,10.4 h -1.25 c 0,-9.17 7.49,-16.59 16.6,-16.59 9.26,0 16.64,7.53 16.64,16.59 z"
           id="path5144" /><path
           style="fill:#000000;stroke-width:0"
           d="m 718.99,418.65 v 0.14 l -0.01,0.13 -0.02,0.13 -0.02,0.13 -0.03,0.13 -0.04,0.13 -0.04,0.12 -0.05,0.12 -0.05,0.11 -0.06,0.12 -0.06,0.11 -0.07,0.11 -0.07,0.1 -0.08,0.1 -0.09,0.1 -0.08,0.09 -0.09,0.08 -0.1,0.09 -0.1,0.08 -0.1,0.07 -0.11,0.07 -0.11,0.06 -0.12,0.06 -0.11,0.05 -0.12,0.05 -0.12,0.04 -0.13,0.04 -0.13,0.03 -0.13,0.02 -0.13,0.02 -0.13,0.01 h -0.14 c -1.44,0 -2.64,-1.18 -2.64,-2.64 0,-1.44 1.2,-2.64 2.64,-2.64 1.45,0 2.64,1.2 2.64,2.64 z"
           id="path5146" /><path
           style="fill:#000000;stroke-width:0"
           d="m 741.07,418.65 -0.01,0.14 -0.01,0.13 -0.01,0.13 -0.03,0.13 -0.03,0.13 -0.03,0.13 -0.04,0.12 -0.05,0.12 -0.06,0.11 -0.05,0.12 -0.07,0.11 -0.07,0.11 -0.07,0.1 -0.08,0.1 -0.08,0.1 -0.09,0.09 -0.09,0.08 -0.1,0.09 -0.1,0.08 -0.1,0.07 -0.11,0.07 -0.11,0.06 -0.11,0.06 -0.12,0.05 -0.12,0.05 -0.12,0.04 -0.13,0.04 -0.12,0.03 -0.13,0.02 -0.13,0.02 -0.14,0.01 h -0.13 c -1.44,0 -2.65,-1.18 -2.65,-2.64 0,-1.44 1.21,-2.64 2.65,-2.64 1.45,0 2.64,1.2 2.64,2.64 z"
           id="path5148" /><path
           style="fill:#000000;stroke-width:0"
           d="m 763.15,418.65 -0.01,0.14 -0.01,0.13 -0.02,0.13 -0.02,0.13 -0.03,0.13 -0.03,0.13 -0.05,0.12 -0.04,0.12 -0.06,0.11 -0.05,0.12 -0.07,0.11 -0.07,0.11 -0.07,0.1 -0.08,0.1 -0.08,0.1 -0.09,0.09 -0.09,0.08 -0.1,0.09 -0.1,0.08 -0.1,0.07 -0.11,0.07 -0.11,0.06 -0.11,0.06 -0.12,0.05 -0.12,0.05 -0.12,0.04 -0.13,0.04 -0.13,0.03 -0.13,0.02 -0.13,0.02 -0.13,0.01 h -0.14 c -1.43,0 -2.64,-1.18 -2.64,-2.64 0,-1.44 1.21,-2.64 2.64,-2.64 1.46,0 2.65,1.2 2.65,2.64 z"
           id="path5150" /><path
           style="fill:#000000;stroke-width:0"
           d="m 814.63,418.65 h -1.25 c 0,-3.83 -1.44,-7.47 -4.03,-10.4 l -10.41,10.4 10.36,10.42 -0.89,0.85 -10.38,-10.42 -9.9,9.87 c -0.11,0.09 -0.45,0.44 -0.45,0.55 0,0.2 4.03,4.08 10.31,4.08 1.75,0 6.33,-0.25 10.42,-4.08 l 0.89,-0.85 c 2.39,-2.54 4.08,-6.32 4.08,-10.42 h 1.25 c 0,9.17 -7.47,16.6 -16.6,16.6 -9.26,0 -16.63,-7.54 -16.63,-16.6 h 1.25 c 0,3.85 1.45,7.47 4.03,10.42 l 10.42,-10.42 0.89,-0.84 9.92,-9.86 c 0.09,-0.11 0.44,-0.45 0.44,-0.55 0,-0.2 -4.03,-4.09 -10.32,-4.09 -1.73,0 -6.32,0.25 -10.4,4.09 l 10.36,10.41 -0.89,0.84 -10.42,-10.4 c -3.03,3.39 -4.03,7.21 -4.03,10.4 h -1.25 c 0,-9.17 7.48,-16.59 16.59,-16.59 9.26,0 16.64,7.53 16.64,16.59 z"
           id="path5152" /><path
           style="fill:#000000;stroke-width:0"
           d="m 844.94,422.89 0.25,0.88 0.24,0.91 0.24,0.91 0.23,0.92 0.22,0.92 0.22,0.92 0.2,0.91 0.2,0.91 c 0.59,3.33 0.95,6.67 0.95,7.26 0,2.8 -2.75,2.8 -3.34,2.8 -3.78,0 -7.17,-1.39 -9.52,-3 -4.03,-2.73 -5.33,-6.08 -5.33,-6.31 0,-0.36 0.35,-0.36 0.5,-0.36 0.4,0 2.74,0.59 3.78,2.5 1.35,2.53 2.8,4.42 7.29,4.42 2.03,0 2.39,-1.39 2.39,-2.19 0,-0.04 -0.16,-2.39 -0.75,-5.83 -0.25,-1.39 -0.41,-2.29 -1.46,-6.57 h -1.78 c -1.4,-0.05 -3.69,-1.64 -3.69,-2.39 0,-0.3 0.05,-0.35 1.15,-0.35 h 3.59 c -1.05,-3.48 -2.45,-8.28 -4.74,-14.36 -0.45,-1.14 -0.45,-1.23 -0.45,-1.28 0,-0.36 0.41,-0.36 0.5,-0.36 0.7,0 2.24,0.66 3.24,1.64 0.25,0.32 0.34,0.41 0.54,0.91 1.75,4.37 3.24,8.86 4.54,13.45 h 11.21 c 0.55,0 1.49,0 2.3,0.5 -0.56,-2.09 -2.59,-10.22 -2.59,-14.15 0,-1.44 0.84,-2.74 2.98,-2.74 6.63,0 10.31,4.13 10.31,5.72 0,0.31 -0.25,0.41 -0.5,0.41 -0.39,0 -3.03,-0.71 -3.78,-2.64 -0.2,-0.41 -0.25,-0.46 -1.2,-0.6 -0.55,-0.11 -1.48,-0.15 -1.55,-0.15 -0.89,0 -2.03,0.59 -2.03,2.14 0,0.61 0.35,3.34 0.5,4.43 0.85,5.54 3.28,14.89 7.56,26.25 0.16,0.36 0.16,0.46 0.16,0.55 0,0.36 -0.3,0.36 -0.5,0.36 -0.75,0 -2.19,-0.7 -3.14,-1.55 -0.05,-0.09 -0.35,-0.34 -0.55,-0.79 -2,-4.89 -3.53,-9.93 -5.03,-15 z"
           id="path5154" /></g>    </g>
    <g
       id="g5349"
       transform="translate(44.10464,-46.183173)">
      <g
         word-spacing="normal"
         letter-spacing="normal"
         font-size-adjust="none"
         font-stretch="normal"
         font-weight="normal"
         font-variant="normal"
         font-style="normal"
         stroke-miterlimit="10.433"
         xml:space="preserve"
         transform="matrix(0.3,0,0,-0.3,-52.5,222.75)"
         id="g5347"
         style="font-style:normal;font-variant:normal;font-weight:normal;font-stretch:normal;letter-spacing:normal;word-spacing:normal;text-anchor:start;fill:none;fill-opacity:1;fill-rule:evenodd;stroke:#000000;stroke-linecap:butt;stroke-linejoin:miter;stroke-miterlimit:10.43299961;stroke-dasharray:none;stroke-dashoffset:0;stroke-opacity:1"><path
           id="path5319"
           d="m 463.44,441.78 v 0.16 0.17 l -0.01,0.16 v 0.08 0.08 l -0.01,0.08 -0.01,0.08 -0.01,0.07 -0.01,0.07 -0.02,0.07 -0.01,0.07 -0.02,0.07 -0.02,0.06 -0.03,0.06 -0.03,0.06 -0.03,0.06 -0.03,0.05 -0.04,0.05 -0.04,0.05 -0.05,0.04 -0.05,0.04 -0.03,0.01 -0.03,0.02 -0.03,0.02 -0.03,0.01 -0.03,0.01 -0.03,0.02 -0.03,0.01 -0.04,0.01 -0.04,0.01 -0.03,0.01 h -0.04 l -0.04,0.01 h -0.04 l -0.05,0.01 h -0.04 -0.05 c -1,0 -1,-0.89 -1,-1.78 v -46.24 c 0,-0.9 0,-1.79 1,-1.79 1,0 1,0.89 1,1.79 z"
           style="fill:#000000;stroke-width:0" /><path
           id="path5321"
           d="m 493.33,439.48 0.01,0.02 v 0.02 l 0.01,0.04 0.01,0.04 0.01,0.05 0.02,0.04 0.01,0.05 0.01,0.05 0.01,0.05 0.01,0.05 0.01,0.05 0.01,0.05 0.01,0.05 v 0.05 l 0.01,0.04 v 0.05 0.03 0.02 c 0,0.5 -0.34,0.55 -0.59,0.55 -0.5,0 -0.55,-0.11 -0.75,-1 l -8.27,-32.94 c -3.78,0.45 -5.67,2.3 -5.67,5.59 0,0.99 0,2.28 2.69,9.27 0.2,0.59 0.55,1.44 0.55,2.44 0,2.23 -1.6,4.07 -4.1,4.07 -4.73,0 -6.58,-7.21 -6.58,-7.67 0,-0.5 0.5,-0.5 0.61,-0.5 0.5,0 0.55,0.11 0.8,0.91 1.34,4.73 3.33,6.17 5.03,6.17 0.39,0 1.25,0 1.25,-1.59 0,-1.3 -0.5,-2.53 -1.15,-4.28 -2.4,-6.29 -2.4,-7.58 -2.4,-8.43 0,-4.73 3.9,-6.78 8.68,-7.07 -0.41,-1.79 -0.41,-1.89 -1.1,-4.54 -0.15,-0.54 -1.15,-4.57 -1.15,-4.73 0,-0.05 0,-0.5 0.61,-0.5 0.09,0 0.34,0 0.43,0.2 0.16,0.1 0.46,1.35 0.61,2.05 l 1.89,7.42 c 1.85,0 6.22,0 10.91,5.33 2.05,2.3 3.09,4.48 3.64,5.98 0.45,1.24 1.55,5.58 1.55,7.77 0,2.8 -1.35,3.48 -2.21,3.48 -1.23,0 -2.48,-1.29 -2.48,-2.39 0,-0.64 0.3,-0.93 0.75,-1.34 0.55,-0.55 1.8,-1.84 1.8,-4.23 0,-3.19 -2.6,-7.27 -4.35,-9.07 -4.37,-4.43 -7.56,-4.43 -9.36,-4.43 z"
           style="fill:#000000;stroke-width:0" /><path
           id="path5323"
           d="m 513.39,420.92 v 0.04 0.04 0.05 0.04 0.03 0.04 0.04 0.03 l -0.01,0.04 v 0.03 0.03 0.03 0.03 l -0.01,0.03 v 0.03 0.02 l -0.01,0.03 v 0.02 l -0.01,0.03 v 0.02 l -0.02,0.04 -0.01,0.04 -0.02,0.03 -0.02,0.03 -0.02,0.03 -0.02,0.03 -0.03,0.02 -0.03,0.02 -0.04,0.02 -0.03,0.01 -0.04,0.01 -0.05,0.02 H 513 512.97 l -0.02,0.01 h -0.03 l -0.02,0.01 h -0.03 -0.03 -0.03 -0.04 l -0.03,0.01 h -0.03 -0.04 -0.04 -0.03 -0.04 -0.04 -0.04 -0.05 -0.04 -0.05 c -2.23,-2.2 -5.39,-2.23 -6.82,-2.23 v -1.25 c 0.84,0 3.14,0 5.04,0.97 v -17.77 c 0,-1.16 0,-1.61 -3.48,-1.61 h -1.31 v -1.25 c 0.62,0.03 4.9,0.14 6.2,0.14 1.08,0 5.47,-0.11 6.23,-0.14 v 1.25 h -1.32 c -3.49,0 -3.49,0.45 -3.49,1.61 z"
           style="fill:#000000;stroke-width:0" /><path
           id="path5325"
           d="m 534.27,406.25 v 0.3 l -0.01,0.3 -0.02,0.29 -0.03,0.28 -0.03,0.27 -0.04,0.26 -0.04,0.26 -0.05,0.24 -0.06,0.24 -0.07,0.23 -0.07,0.22 -0.07,0.21 -0.09,0.2 -0.09,0.19 -0.09,0.19 -0.1,0.17 -0.11,0.16 -0.11,0.16 -0.12,0.14 -0.12,0.13 -0.13,0.13 -0.13,0.11 -0.14,0.1 -0.15,0.1 -0.14,0.08 -0.16,0.07 -0.16,0.06 -0.16,0.05 -0.17,0.04 -0.17,0.03 -0.18,0.01 -0.18,0.01 c -1.64,0 -2.64,-1.25 -2.64,-2.64 0,-1.34 1,-2.64 2.64,-2.64 0.6,0 1.25,0.2 1.75,0.64 0.14,0.11 0.2,0.16 0.25,0.16 0.05,0 0.1,-0.05 0.1,-0.75 0,-3.69 -1.74,-6.68 -3.4,-8.32 -0.54,-0.54 -0.54,-0.65 -0.54,-0.79 0,-0.36 0.25,-0.55 0.5,-0.55 0.54,0 4.53,3.83 4.53,9.66 z"
           style="fill:#000000;stroke-width:0" /><path
           id="path5327"
           d="m 570.25,439.48 0.01,0.02 v 0.02 l 0.01,0.04 0.01,0.04 0.02,0.05 0.01,0.04 0.01,0.05 0.01,0.05 0.01,0.05 0.01,0.05 0.01,0.05 0.01,0.05 0.01,0.05 0.01,0.05 v 0.04 0.05 0.03 l 0.01,0.02 c 0,0.5 -0.35,0.55 -0.6,0.55 -0.5,0 -0.55,-0.11 -0.75,-1 l -8.27,-32.94 c -3.78,0.45 -5.67,2.3 -5.67,5.59 0,0.99 0,2.28 2.69,9.27 0.2,0.59 0.55,1.44 0.55,2.44 0,2.23 -1.6,4.07 -4.1,4.07 -4.73,0 -6.57,-7.21 -6.57,-7.67 0,-0.5 0.5,-0.5 0.6,-0.5 0.5,0 0.55,0.11 0.8,0.91 1.35,4.73 3.33,6.17 5.03,6.17 0.39,0 1.25,0 1.25,-1.59 0,-1.3 -0.5,-2.53 -1.15,-4.28 -2.39,-6.29 -2.39,-7.58 -2.39,-8.43 0,-4.73 3.89,-6.78 8.67,-7.07 -0.41,-1.79 -0.41,-1.89 -1.09,-4.54 -0.16,-0.54 -1.16,-4.57 -1.16,-4.73 0,-0.05 0,-0.5 0.61,-0.5 0.09,0 0.34,0 0.43,0.2 0.16,0.1 0.46,1.35 0.62,2.05 l 1.88,7.42 c 1.85,0 6.22,0 10.91,5.33 2.05,2.3 3.09,4.48 3.64,5.98 0.45,1.24 1.55,5.58 1.55,7.77 0,2.8 -1.35,3.48 -2.2,3.48 -1.24,0 -2.49,-1.29 -2.49,-2.39 0,-0.64 0.3,-0.93 0.75,-1.34 0.55,-0.55 1.8,-1.84 1.8,-4.23 0,-3.19 -2.59,-7.27 -4.34,-9.07 -4.38,-4.43 -7.57,-4.43 -9.37,-4.43 z"
           style="fill:#000000;stroke-width:0" /><path
           id="path5329"
           d="m 596.23,405.11 h -1.18 c -0.1,-0.77 -0.46,-2.83 -0.91,-3.18 -0.26,-0.2 -2.95,-0.2 -3.44,-0.2 h -6.42 c 3.66,3.23 4.88,4.2 6.97,5.84 2.58,2.07 4.98,4.22 4.98,7.54 0,4.21 -3.68,6.79 -8.15,6.79 -4.31,0 -7.25,-3.03 -7.25,-6.23 0,-1.78 1.5,-1.96 1.86,-1.96 0.83,0 1.84,0.6 1.84,1.85 0,0.62 -0.25,1.84 -2.06,1.84 1.08,2.47 3.45,3.24 5.09,3.24 3.49,0 5.3,-2.71 5.3,-5.53 0,-3.04 -2.16,-5.44 -3.28,-6.69 l -8.39,-8.3 c -0.36,-0.31 -0.36,-0.39 -0.36,-1.36 h 14.36 z"
           style="fill:#000000;stroke-width:0" /><path
           id="path5331"
           d="m 611.19,406.25 -0.01,0.3 -0.01,0.3 -0.01,0.29 -0.03,0.28 -0.03,0.27 -0.04,0.26 -0.04,0.26 -0.06,0.24 -0.05,0.24 -0.07,0.23 -0.07,0.22 -0.08,0.21 -0.08,0.2 -0.09,0.19 -0.09,0.19 -0.1,0.17 -0.11,0.16 -0.11,0.16 -0.12,0.14 -0.12,0.13 -0.13,0.13 -0.14,0.11 -0.13,0.1 -0.15,0.1 -0.15,0.08 -0.15,0.07 -0.16,0.06 -0.16,0.05 -0.17,0.04 -0.17,0.03 -0.18,0.01 -0.18,0.01 c -1.64,0 -2.64,-1.25 -2.64,-2.64 0,-1.34 1,-2.64 2.64,-2.64 0.59,0 1.25,0.2 1.75,0.64 0.14,0.11 0.2,0.16 0.25,0.16 0.05,0 0.09,-0.05 0.09,-0.75 0,-3.69 -1.73,-6.68 -3.39,-8.32 -0.54,-0.54 -0.54,-0.65 -0.54,-0.79 0,-0.36 0.25,-0.55 0.5,-0.55 0.54,0 4.53,3.83 4.53,9.66 z"
           style="fill:#000000;stroke-width:0" /><path
           id="path5333"
           d="m 632.72,408.84 v 0.13 l -0.01,0.14 -0.02,0.13 -0.02,0.13 -0.03,0.12 -0.04,0.13 -0.04,0.12 -0.05,0.12 -0.05,0.12 -0.06,0.11 -0.06,0.11 -0.07,0.11 -0.08,0.1 -0.08,0.1 -0.08,0.1 -0.09,0.09 -0.09,0.09 -0.09,0.08 -0.1,0.08 -0.11,0.07 -0.11,0.07 -0.11,0.07 -0.11,0.06 -0.12,0.05 -0.12,0.05 -0.12,0.04 -0.12,0.04 -0.13,0.03 -0.13,0.02 -0.13,0.02 -0.14,0.01 h -0.13 c -1.44,0 -2.64,-1.2 -2.64,-2.64 0,-1.44 1.2,-2.64 2.64,-2.64 1.45,0 2.64,1.2 2.64,2.64 z"
           style="fill:#000000;stroke-width:0" /><path
           id="path5335"
           d="m 646.52,408.84 -0.01,0.13 -0.01,0.14 -0.01,0.13 -0.03,0.13 -0.03,0.12 -0.03,0.13 -0.04,0.12 -0.05,0.12 -0.06,0.12 -0.05,0.11 -0.07,0.11 -0.07,0.11 -0.07,0.1 -0.08,0.1 -0.08,0.1 -0.09,0.09 -0.09,0.09 -0.1,0.08 -0.1,0.08 -0.1,0.07 -0.11,0.07 -0.11,0.07 -0.11,0.06 -0.12,0.05 -0.12,0.05 -0.12,0.04 -0.13,0.04 -0.12,0.03 -0.13,0.02 -0.14,0.02 -0.13,0.01 h -0.13 c -1.44,0 -2.65,-1.2 -2.65,-2.64 0,-1.44 1.21,-2.64 2.65,-2.64 1.45,0 2.64,1.2 2.64,2.64 z"
           style="fill:#000000;stroke-width:0" /><path
           id="path5337"
           d="m 660.31,408.84 v 0.13 l -0.01,0.14 -0.02,0.13 -0.02,0.13 -0.03,0.12 -0.04,0.13 -0.04,0.12 -0.05,0.12 -0.05,0.12 -0.06,0.11 -0.06,0.11 -0.07,0.11 -0.07,0.1 -0.08,0.1 -0.09,0.1 -0.08,0.09 -0.09,0.09 -0.1,0.08 -0.1,0.08 -0.1,0.07 -0.11,0.07 -0.11,0.07 -0.12,0.06 -0.11,0.05 -0.12,0.05 -0.12,0.04 -0.13,0.04 -0.13,0.03 -0.13,0.02 -0.13,0.02 -0.13,0.01 h -0.14 c -1.44,0 -2.64,-1.2 -2.64,-2.64 0,-1.44 1.2,-2.64 2.64,-2.64 1.45,0 2.64,1.2 2.64,2.64 z"
           style="fill:#000000;stroke-width:0" /><path
           id="path5339"
           d="m 674.66,406.25 -0.01,0.3 -0.01,0.3 -0.02,0.29 -0.02,0.28 -0.03,0.27 -0.04,0.26 -0.05,0.26 -0.05,0.24 -0.06,0.24 -0.06,0.23 -0.07,0.22 -0.08,0.21 -0.08,0.2 -0.09,0.19 -0.09,0.19 -0.11,0.17 -0.1,0.16 -0.11,0.16 -0.12,0.14 -0.12,0.13 -0.13,0.13 -0.14,0.11 -0.14,0.1 -0.14,0.1 -0.15,0.08 -0.15,0.07 -0.16,0.06 -0.16,0.05 -0.17,0.04 -0.17,0.03 -0.18,0.01 -0.18,0.01 c -1.64,0 -2.64,-1.25 -2.64,-2.64 0,-1.34 1,-2.64 2.64,-2.64 0.59,0 1.25,0.2 1.75,0.64 0.14,0.11 0.2,0.16 0.25,0.16 0.05,0 0.09,-0.05 0.09,-0.75 0,-3.69 -1.73,-6.68 -3.39,-8.32 -0.55,-0.54 -0.55,-0.65 -0.55,-0.79 0,-0.36 0.26,-0.55 0.5,-0.55 0.55,0 4.54,3.83 4.54,9.66 z"
           style="fill:#000000;stroke-width:0" /><path
           id="path5341"
           d="m 710.64,439.48 0.01,0.02 v 0.02 l 0.01,0.04 0.01,0.04 0.01,0.05 0.01,0.04 0.02,0.05 0.01,0.05 0.01,0.05 0.01,0.05 0.01,0.05 0.01,0.05 0.01,0.05 v 0.05 l 0.01,0.04 v 0.05 0.03 0.02 c 0,0.5 -0.34,0.55 -0.59,0.55 -0.5,0 -0.55,-0.11 -0.75,-1 l -8.27,-32.94 c -3.78,0.45 -5.67,2.3 -5.67,5.59 0,0.99 0,2.28 2.69,9.27 0.2,0.59 0.54,1.44 0.54,2.44 0,2.23 -1.59,4.07 -4.09,4.07 -4.73,0 -6.58,-7.21 -6.58,-7.67 0,-0.5 0.5,-0.5 0.61,-0.5 0.5,0 0.55,0.11 0.8,0.91 1.34,4.73 3.33,6.17 5.03,6.17 0.39,0 1.25,0 1.25,-1.59 0,-1.3 -0.5,-2.53 -1.16,-4.28 -2.39,-6.29 -2.39,-7.58 -2.39,-8.43 0,-4.73 3.89,-6.78 8.68,-7.07 -0.41,-1.79 -0.41,-1.89 -1.1,-4.54 -0.16,-0.54 -1.16,-4.57 -1.16,-4.73 0,-0.05 0,-0.5 0.61,-0.5 0.1,0 0.35,0 0.44,0.2 0.16,0.1 0.45,1.35 0.61,2.05 l 1.89,7.42 c 1.85,0 6.22,0 10.91,5.33 2.04,2.3 3.09,4.48 3.64,5.98 0.45,1.24 1.55,5.58 1.55,7.77 0,2.8 -1.35,3.48 -2.21,3.48 -1.23,0 -2.48,-1.29 -2.48,-2.39 0,-0.64 0.3,-0.93 0.75,-1.34 0.55,-0.55 1.79,-1.84 1.79,-4.23 0,-3.19 -2.59,-7.27 -4.34,-9.07 -4.37,-4.43 -7.56,-4.43 -9.36,-4.43 z"
           style="fill:#000000;stroke-width:0" /><path
           id="path5343"
           d="m 723.29,400.95 -0.01,-0.04 -0.02,-0.05 -0.01,-0.04 -0.02,-0.05 -0.01,-0.05 -0.02,-0.06 -0.01,-0.05 -0.01,-0.05 -0.03,-0.11 -0.03,-0.11 -0.03,-0.12 -0.03,-0.1 -0.01,-0.06 -0.01,-0.05 -0.01,-0.05 -0.01,-0.05 -0.01,-0.05 -0.01,-0.04 -0.01,-0.05 -0.01,-0.04 -0.01,-0.03 -0.01,-0.04 v -0.03 l -0.01,-0.03 v -0.02 -0.02 -0.01 -0.01 -0.01 0 c 0,-0.77 0.62,-1.11 1.18,-1.11 0.63,0 1.17,0.45 1.36,0.76 0.17,0.32 0.46,1.43 0.63,2.16 0.17,0.66 0.54,2.27 0.76,3.14 0.21,0.77 0.42,1.53 0.6,2.33 0.37,1.44 0.45,1.7 1.45,3.14 0.98,1.39 2.62,3.2 5.23,3.2 2.02,0 2.05,-1.78 2.05,-2.44 0,-2.09 -1.48,-5.95 -2.05,-7.42 -0.39,-0.98 -0.53,-1.29 -0.53,-1.89 0,-1.84 1.55,-2.98 3.32,-2.98 3.48,0 5.01,4.79 5.01,5.33 0,0.45 -0.45,0.45 -0.55,0.45 -0.5,0 -0.53,-0.2 -0.67,-0.59 -0.79,-2.79 -2.29,-4.22 -3.69,-4.22 -0.73,0 -0.87,0.48 -0.87,1.22 0,0.79 0.17,1.25 0.8,2.82 0.42,1.08 1.86,4.77 1.86,6.72 0,3.39 -2.69,3.97 -4.54,3.97 -2.89,0 -4.84,-1.76 -5.89,-3.16 -0.25,2.4 -2.29,3.16 -3.73,3.16 -1.5,0 -2.3,-1.08 -2.75,-1.87 -0.77,-1.29 -1.25,-3.29 -1.25,-3.46 0,-0.45 0.48,-0.45 0.59,-0.45 0.49,0 0.52,0.11 0.77,1.05 0.51,2.06 1.19,3.76 2.55,3.76 0.9,0 1.14,-0.76 1.14,-1.7 0,-0.67 -0.32,-1.95 -0.57,-2.89 -0.23,-0.95 -0.57,-2.38 -0.76,-3.14 z"
           style="fill:#000000;stroke-width:0" /><path
           id="path5345"
           d="m 760.11,417.81 0.01,0.03 0.02,0.02 0.01,0.03 0.01,0.02 0.01,0.03 0.01,0.02 0.01,0.03 0.01,0.02 v 0.02 l 0.01,0.02 0.01,0.02 0.01,0.03 0.01,0.03 0.02,0.04 0.01,0.04 0.01,0.03 0.01,0.03 0.01,0.03 0.01,0.03 0.01,0.02 0.01,0.03 v 0.02 l 0.01,0.02 v 0.02 l 0.01,0.02 v 0.02 0.02 l 0.01,0.01 v 0.02 0.01 0.02 0.01 0.03 0.03 0.02 c 0,0.16 0,0.25 -0.25,0.85 l -8.71,22.92 c -0.3,0.84 -0.6,1.14 -1.15,1.14 -0.54,0 -1,-0.44 -1,-0.99 0,-0.15 0,-0.25 0.25,-0.79 l 8.83,-23.13 -8.83,-23.01 c -0.25,-0.55 -0.25,-0.64 -0.25,-0.89 0,-0.55 0.46,-1 1,-1 0.66,0 0.85,0.5 1.05,1 z"
           style="fill:#000000;stroke-width:0" /></g>    </g>
    <path
       style="fill:none;stroke:#000000;stroke-width:0.83600003;stroke-linecap:butt;stroke-linejoin:miter;stroke-miterlimit:4;stroke-dasharray:none;stroke-opacity:1"
       d="m 14.363094,143.6053 c -12.1283598,44.52584 -16.7404968,67.16538 41.577381,74.52485 48.655695,6.14012 86.180265,-6.01019 131.535715,-9.01511 28.1118,-1.86248 67.61643,17.05693 92.98214,8.4141 12.22081,-4.16397 21.98182,-21.88546 25.70239,-31.25236 C 335.00393,113.66104 162.92946,107.0044 114.90476,99.731794 98.806896,97.294017 94.176766,81.771344 82.398806,79.898571 43.234527,73.671196 17.643379,121.43786 14.363094,143.6053 Z"
       id="path5519" />
    <path
       style="fill:none;fill-opacity:1;stroke:#000000;stroke-width:0.69999999;stroke-linecap:butt;stroke-linejoin:round;stroke-miterlimit:4;stroke-dasharray:none;stroke-opacity:1;paint-order:normal"
       id="path5523"
       d="m 82.398808,137.87201 a 9.8273811,9.4494047 0 0 1 -9.816361,9.4494 9.8273811,9.4494047 0 0 1 -9.838377,-9.42821 9.8273811,9.4494047 0 0 1 9.794296,-9.47054 9.8273811,9.4494047 0 0 1 9.860343,9.40696" />
    <path
       style="fill:none;stroke:#000000;stroke-width:0.26458332px;stroke-linecap:butt;stroke-linejoin:miter;stroke-opacity:1"
       d="m 238.00975,57.540367 c 105.273,-0.437999 105.273,-0.437999 105.273,-0.437999 v 0"
       id="path5527" />
    <path
       style="fill:none;stroke:#000000;stroke-width:0.71100003;stroke-linecap:butt;stroke-linejoin:miter;stroke-miterlimit:4;stroke-dasharray:none;stroke-opacity:1;marker-end:url(#Arrow1Lend)"
       d="m 301.89391,57.456374 c -5.16597,34.685805 -20.8735,30.117303 -34.85382,39.083269 -16.29963,8.262377 -25.5674,22.587097 -25.5674,22.587097"
       id="path5529" />
    <path
       style="fill:none;stroke:#000000;stroke-width:0.76499999;stroke-linecap:butt;stroke-linejoin:miter;stroke-miterlimit:4;stroke-dasharray:none;stroke-opacity:1;marker-start:url(#marker8693)"
       d="m 73.636777,147.68179 -6.414469,77.50816"
       id="path7285" />
    <g
       id="g7936"
       transform="translate(-88.198943,111.71866)">
      <g
         id="g7934"
         transform="matrix(0.34654849,0,0,-0.34654849,-60.645985,273.75664)"
         xml:space="preserve"
         stroke-miterlimit="10.433"
         font-style="normal"
         font-variant="normal"
         font-weight="normal"
         font-stretch="normal"
         font-size-adjust="none"
         letter-spacing="normal"
         word-spacing="normal"
         style="font-style:normal;font-variant:normal;font-weight:normal;font-stretch:normal;letter-spacing:normal;word-spacing:normal;text-anchor:start;fill:none;fill-opacity:1;fill-rule:evenodd;stroke:#000000;stroke-linecap:butt;stroke-linejoin:miter;stroke-miterlimit:10.43299961;stroke-dasharray:none;stroke-dashoffset:0;stroke-opacity:1"><path
           d="m 466.72,436.34 v 0.16 l 0.01,0.16 v 0.15 l 0.01,0.15 0.01,0.13 0.01,0.13 0.02,0.13 0.03,0.11 0.03,0.12 0.04,0.1 0.05,0.1 0.05,0.09 0.06,0.09 0.08,0.08 0.08,0.08 0.09,0.07 0.11,0.06 0.12,0.06 0.06,0.03 0.07,0.03 0.07,0.02 0.07,0.03 0.08,0.02 0.08,0.02 0.08,0.02 0.09,0.02 0.09,0.02 0.1,0.02 0.1,0.02 0.11,0.01 0.1,0.01 0.12,0.02 0.11,0.01 0.13,0.01 0.12,0.01 0.13,0.01 0.14,0.01 0.14,0.01 h 0.15 l 0.15,0.01 h 0.15 l 0.16,0.01 h 0.17 0.17 0.17 0.19 1.29 v 1.55 c -1.75,-0.16 -5.68,-0.16 -7.57,-0.16 -1.94,0 -5.88,0 -7.63,0.16 v -1.55 h 1.3 c 3.93,0 4.09,-0.54 4.09,-2.34 v -26.25 c 0,-1.8 -0.16,-2.34 -4.09,-2.34 h -1.3 v -1.55 c 1.75,0.16 5.69,0.16 7.58,0.16 1.94,0 5.87,0 7.62,-0.16 v 1.55 h -1.29 c -3.94,0 -4.1,0.54 -4.1,2.34 z"
           id="path7876"
           style="fill:#000000;stroke-width:0" /><path
           d="m 479,423.34 v -13.36 c 0,-2.23 -0.54,-2.23 -3.89,-2.23 v -1.55 c 1.75,0.05 4.28,0.16 5.63,0.16 1.3,0 3.89,-0.11 5.58,-0.16 v 1.55 c -3.33,0 -3.88,0 -3.88,2.23 v 9.17 c 0,5.19 3.53,7.97 6.72,7.97 3.14,0 3.69,-2.69 3.69,-5.53 v -11.61 c 0,-2.23 -0.55,-2.23 -3.89,-2.23 v -1.55 c 1.75,0.05 4.29,0.16 5.64,0.16 1.29,0 3.87,-0.11 5.58,-0.16 v 1.55 c -2.6,0 -3.85,0 -3.89,1.5 v 9.51 c 0,4.28 0,5.83 -1.55,7.61 -0.69,0.86 -2.35,1.84 -5.22,1.84 -3.64,0 -5.98,-2.14 -7.38,-5.21 v 5.21 l -7.03,-0.54 v -1.55 c 3.49,0 3.89,-0.34 3.89,-2.78 z"
           id="path7878"
           style="fill:#000000;stroke-width:0" /><path
           d="m 508.42,426.12 h 7.13 v 1.55 h -7.13 v 9.17 h -1.25 c -0.05,-4.08 -1.55,-9.42 -6.42,-9.61 v -1.11 h 4.23 v -13.75 c 0,-6.12 4.63,-6.72 6.43,-6.72 3.53,0 4.93,3.53 4.93,6.72 v 2.84 h -1.25 v -2.73 c 0,-3.69 -1.5,-5.58 -3.34,-5.58 -3.33,0 -3.33,4.53 -3.33,5.38 z"
           id="path7880"
           style="fill:#000000;stroke-width:0" /><path
           d="m 524.65,417.71 0.04,1.05 c 0.3,7.42 4.49,8.66 6.19,8.66 5.12,0 5.62,-6.72 5.62,-8.66 h -11.81 l -0.04,-1.05 h 13.9 c 1.1,0 1.23,0 1.23,1.05 0,4.92 -2.68,9.75 -8.9,9.75 -5.78,0 -10.38,-5.12 -10.38,-11.36 0,-6.67 5.24,-11.5 10.97,-11.5 6.08,0 8.31,5.53 8.31,6.47 0,0.5 -0.38,0.61 -0.63,0.61 -0.46,0 -0.55,-0.3 -0.66,-0.7 -1.74,-5.13 -6.22,-5.13 -6.72,-5.13 -2.5,0 -4.49,1.49 -5.62,3.33 -1.5,2.39 -1.5,5.69 -1.5,7.48 z"
           id="path7882"
           style="fill:#000000;stroke-width:0" /><path
           d="m 549.5,422.75 v 5.46 l -6.92,-0.54 v -1.55 c 3.49,0 3.89,-0.34 3.89,-2.78 v -13.36 c 0,-2.23 -0.54,-2.23 -3.89,-2.23 v -1.55 c 1.95,0.05 4.28,0.16 5.69,0.16 1.98,0 4.33,0 6.33,-0.16 v 1.55 h -1.05 c -3.69,0 -3.8,0.54 -3.8,2.34 v 7.67 c 0,4.92 2.1,9.36 5.9,9.36 0.34,0 0.43,0 0.54,-0.05 -0.16,-0.04 -1.16,-0.64 -1.16,-1.93 0,-1.41 1.05,-2.14 2.16,-2.14 0.89,0 2.14,0.59 2.14,2.18 0,1.6 -1.55,3.03 -3.68,3.03 -3.65,0 -5.44,-3.32 -6.15,-5.46 z"
           id="path7884"
           style="fill:#000000;stroke-width:0" /><path
           d="m 566.28,417.71 0.05,1.05 c 0.29,7.42 4.48,8.66 6.19,8.66 5.12,0 5.62,-6.72 5.62,-8.66 h -11.81 l -0.05,-1.05 h 13.91 c 1.09,0 1.23,0 1.23,1.05 0,4.92 -2.69,9.75 -8.9,9.75 -5.79,0 -10.38,-5.12 -10.38,-11.36 0,-6.67 5.24,-11.5 10.97,-11.5 6.08,0 8.31,5.53 8.31,6.47 0,0.5 -0.39,0.61 -0.64,0.61 -0.45,0 -0.55,-0.3 -0.66,-0.7 -1.73,-5.13 -6.21,-5.13 -6.71,-5.13 -2.5,0 -4.49,1.49 -5.63,3.33 -1.5,2.39 -1.5,5.69 -1.5,7.48 z"
           id="path7886"
           style="fill:#000000;stroke-width:0" /><path
           d="m 593.19,415.87 0.11,-0.02 0.13,-0.02 0.14,-0.03 0.15,-0.04 0.17,-0.04 0.18,-0.04 0.19,-0.05 0.2,-0.06 0.2,-0.06 0.22,-0.07 0.21,-0.08 0.22,-0.08 0.22,-0.1 0.22,-0.1 0.22,-0.11 0.22,-0.12 0.22,-0.14 0.21,-0.14 0.2,-0.15 0.2,-0.16 0.19,-0.18 0.18,-0.19 0.17,-0.2 0.16,-0.21 0.14,-0.22 0.07,-0.12 0.06,-0.12 0.06,-0.13 0.05,-0.12 0.05,-0.14 0.05,-0.13 0.04,-0.14 0.03,-0.14 0.03,-0.15 0.03,-0.15 0.02,-0.16 0.01,-0.15 0.01,-0.17 0.01,-0.16 c 0,-2.53 -1.76,-4.53 -5.63,-4.53 -4.19,0 -5.98,2.84 -6.94,7.07 -0.14,0.64 -0.19,0.85 -0.69,0.85 -0.65,0 -0.65,-0.35 -0.65,-1.25 v -6.58 c 0,-0.84 0,-1.19 0.55,-1.19 0.25,0 0.29,0.05 1.25,1 0.09,0.1 0.09,0.19 1,1.14 2.18,-2.09 4.43,-2.14 5.48,-2.14 5.72,0 8.02,3.35 8.02,6.92 0,2.64 -1.5,4.14 -2.1,4.74 -1.64,1.59 -3.59,2 -5.69,2.39 -2.78,0.55 -6.12,1.2 -6.12,4.09 0,1.74 1.3,3.78 5.58,3.78 5.48,0 5.73,-4.48 5.83,-6.03 0.06,-0.45 0.5,-0.45 0.61,-0.45 0.64,0 0.64,0.25 0.64,1.2 v 5.03 c 0,0.85 0,1.19 -0.55,1.19 -0.25,0 -0.35,0 -1,-0.59 -0.14,-0.21 -0.64,-0.64 -0.85,-0.8 -1.89,1.39 -3.93,1.39 -4.68,1.39 -6.08,0 -7.97,-3.33 -7.97,-6.12 0,-1.74 0.8,-3.14 2.14,-4.24 1.59,-1.29 3,-1.59 6.58,-2.28 z"
           id="path7888"
           style="fill:#000000;stroke-width:0" /><path
           d="m 611.13,426.12 h 7.13 v 1.55 h -7.13 v 9.17 h -1.25 c -0.04,-4.08 -1.54,-9.42 -6.42,-9.61 v -1.11 h 4.24 v -13.75 c 0,-6.12 4.62,-6.72 6.42,-6.72 3.53,0 4.93,3.53 4.93,6.72 v 2.84 h -1.25 v -2.73 c 0,-3.69 -1.5,-5.58 -3.34,-5.58 -3.33,0 -3.33,4.53 -3.33,5.38 z"
           id="path7890"
           style="fill:#000000;stroke-width:0" /><path
           d="m 630.64,428.21 -6.97,-0.54 v -1.55 c 3.23,0 3.68,-0.3 3.68,-2.73 v -13.41 c 0,-2.23 -0.54,-2.23 -3.88,-2.23 v -1.55 c 1.59,0.05 4.28,0.16 5.48,0.16 1.75,0 3.48,-0.11 5.19,-0.16 v 1.55 c -3.3,0 -3.5,0.25 -3.5,2.18 z"
           id="path7892"
           style="fill:#000000;stroke-width:0" /><path
           d="m 630.84,436.89 v 0.14 l -0.01,0.15 -0.02,0.14 -0.03,0.14 -0.03,0.13 -0.03,0.13 -0.05,0.13 -0.05,0.12 -0.05,0.12 -0.06,0.12 -0.07,0.11 -0.07,0.1 -0.07,0.1 -0.08,0.1 -0.09,0.1 -0.09,0.08 -0.09,0.09 -0.1,0.08 -0.1,0.07 -0.1,0.07 -0.11,0.07 -0.11,0.06 -0.12,0.05 -0.11,0.05 -0.12,0.04 -0.12,0.04 -0.12,0.03 -0.13,0.03 -0.12,0.02 -0.13,0.01 -0.13,0.01 -0.13,0.01 c -1.55,0 -2.64,-1.35 -2.64,-2.64 0,-1.35 1.09,-2.64 2.64,-2.64 1.39,0 2.64,1.04 2.64,2.64 z"
           id="path7894"
           style="fill:#000000;stroke-width:0" /><path
           d="m 641.1,423.34 v -13.36 c 0,-2.23 -0.54,-2.23 -3.88,-2.23 v -1.55 c 1.75,0.05 4.28,0.16 5.62,0.16 1.3,0 3.89,-0.11 5.58,-0.16 v 1.55 c -3.33,0 -3.88,0 -3.88,2.23 v 9.17 c 0,5.19 3.53,7.97 6.72,7.97 3.14,0 3.69,-2.69 3.69,-5.53 v -11.61 c 0,-2.23 -0.55,-2.23 -3.89,-2.23 v -1.55 c 1.75,0.05 4.29,0.16 5.64,0.16 1.3,0 3.87,-0.11 5.58,-0.16 v 1.55 c -2.6,0 -3.85,0 -3.89,1.5 v 9.51 c 0,4.28 0,5.83 -1.55,7.61 -0.69,0.86 -2.34,1.84 -5.22,1.84 -3.64,0 -5.98,-2.14 -7.37,-5.21 v 5.21 l -7.03,-0.54 v -1.55 c 3.48,0 3.88,-0.34 3.88,-2.78 z"
           id="path7896"
           style="fill:#000000;stroke-width:0" /><path
           d="m 668.62,412.82 v 0.03 0.02 0.03 0.04 0.04 l 0.01,0.05 v 0.05 0.06 l 0.01,0.05 0.01,0.07 0.01,0.06 0.01,0.07 0.01,0.07 0.01,0.08 0.02,0.08 0.02,0.08 0.02,0.08 0.02,0.08 0.03,0.09 0.03,0.09 0.03,0.09 0.04,0.09 0.03,0.09 0.05,0.1 0.04,0.09 0.05,0.1 0.06,0.09 0.06,0.1 0.06,0.09 0.07,0.1 0.07,0.09 0.08,0.1 c 1.95,-1.39 3.98,-1.55 4.93,-1.55 v 1.14 c -4.34,0 -4.34,4.99 -4.34,6.14 0,1.35 0.06,2.94 0.79,4.17 0.41,0.61 1.55,2 3.55,2 4.33,0 4.33,-4.98 4.33,-6.12 0,-1.34 -0.05,-2.94 -0.8,-4.19 -0.39,-0.59 -1.54,-2 -3.53,-2 v 0 -1.14 c 4.63,0 8.07,3.44 8.07,7.28 0,1.85 -0.8,3.69 -2.04,4.83 1.79,1.69 3.58,1.94 4.49,1.94 0.09,0 0.34,0 0.5,-0.05 -0.57,-0.2 -0.8,-0.75 -0.8,-1.34 0,-0.85 0.64,-1.44 1.44,-1.44 0.5,0 1.44,0.34 1.44,1.48 0,0.85 -0.6,2.44 -2.53,2.44 -1,0 -3.19,-0.3 -5.29,-2.33 -2.09,1.64 -4.18,1.78 -5.28,1.78 -4.64,0 -8.08,-3.43 -8.08,-7.26 0,-2.19 1.1,-4.09 2.35,-5.14 -0.64,-0.74 -1.55,-2.39 -1.55,-4.13 0,-1.54 0.66,-3.43 2.2,-4.43 -3,-0.85 -4.59,-2.99 -4.59,-4.99 0,-3.58 4.94,-6.33 11.02,-6.33 l 0.04,1.14 c -5.03,0 -8.47,2.55 -8.47,5.19 0,2.3 1.9,4.14 4.1,4.28 h 2.93 c 4.29,0 9.87,0 9.87,-4.28 0,-2.69 -3.54,-5.19 -8.43,-5.19 v 0 l -0.04,-1.14 c 5.87,0 11.06,2.55 11.06,6.43 0,1.75 -0.71,4.29 -3.24,5.68 -2.64,1.39 -5.53,1.39 -8.57,1.39 -1.25,0 -3.4,0 -3.74,0.05 -1.59,0.2 -2.64,1.75 -2.64,3.34 z"
           id="path7898"
           style="fill:#000000;stroke-width:0" /><path
           d="m 715.34,415.87 0.11,-0.02 0.13,-0.02 0.14,-0.03 0.16,-0.04 0.17,-0.04 0.17,-0.04 0.19,-0.05 0.2,-0.06 0.21,-0.06 0.21,-0.07 0.21,-0.08 0.22,-0.08 0.22,-0.1 0.22,-0.1 0.22,-0.11 0.22,-0.12 0.22,-0.14 0.21,-0.14 0.21,-0.15 0.19,-0.16 0.19,-0.18 0.18,-0.19 0.17,-0.2 0.16,-0.21 0.14,-0.22 0.07,-0.12 0.06,-0.12 0.06,-0.13 0.05,-0.12 0.05,-0.14 0.05,-0.13 0.04,-0.14 0.03,-0.14 0.04,-0.15 0.02,-0.15 0.02,-0.16 0.02,-0.15 v -0.17 l 0.01,-0.16 c 0,-2.53 -1.75,-4.53 -5.63,-4.53 -4.18,0 -5.98,2.84 -6.93,7.07 -0.15,0.64 -0.19,0.85 -0.69,0.85 -0.66,0 -0.66,-0.35 -0.66,-1.25 v -6.58 c 0,-0.84 0,-1.19 0.55,-1.19 0.25,0 0.3,0.05 1.25,1 0.09,0.1 0.09,0.19 1,1.14 2.18,-2.09 4.43,-2.14 5.48,-2.14 5.72,0 8.02,3.35 8.02,6.92 0,2.64 -1.5,4.14 -2.1,4.74 -1.64,1.59 -3.59,2 -5.68,2.39 -2.79,0.55 -6.13,1.2 -6.13,4.09 0,1.74 1.3,3.78 5.58,3.78 5.48,0 5.73,-4.48 5.83,-6.03 0.06,-0.45 0.5,-0.45 0.61,-0.45 0.64,0 0.64,0.25 0.64,1.2 v 5.03 c 0,0.85 0,1.19 -0.55,1.19 -0.25,0 -0.34,0 -1,-0.59 -0.14,-0.21 -0.64,-0.64 -0.84,-0.8 -1.89,1.39 -3.94,1.39 -4.69,1.39 -6.08,0 -7.97,-3.33 -7.97,-6.12 0,-1.74 0.8,-3.14 2.14,-4.24 1.59,-1.29 3,-1.59 6.58,-2.28 z"
           id="path7900"
           style="fill:#000000;stroke-width:0" /><path
           d="m 733.28,426.12 h 7.13 v 1.55 h -7.13 v 9.17 h -1.25 c -0.04,-4.08 -1.54,-9.42 -6.42,-9.61 v -1.11 h 4.24 v -13.75 c 0,-6.12 4.62,-6.72 6.42,-6.72 3.53,0 4.94,3.53 4.94,6.72 v 2.84 h -1.25 v -2.73 c 0,-3.69 -1.5,-5.58 -3.35,-5.58 -3.33,0 -3.33,4.53 -3.33,5.38 z"
           id="path7902"
           style="fill:#000000;stroke-width:0" /><path
           d="m 760.57,409.98 0.02,-0.19 0.03,-0.18 0.04,-0.19 0.04,-0.18 0.05,-0.19 0.05,-0.18 0.07,-0.18 0.06,-0.18 0.08,-0.18 0.08,-0.17 0.09,-0.18 0.09,-0.16 0.1,-0.16 0.11,-0.16 0.11,-0.16 0.12,-0.14 0.13,-0.14 0.13,-0.14 0.14,-0.13 0.14,-0.12 0.15,-0.12 0.16,-0.1 0.16,-0.1 0.17,-0.09 0.18,-0.08 0.18,-0.07 0.19,-0.06 0.19,-0.05 0.2,-0.04 0.2,-0.03 0.21,-0.02 0.22,-0.01 c 1.03,0 4.08,0.71 4.08,4.74 v 2.78 h -1.25 v -2.78 c 0,-2.89 -1.24,-3.19 -1.8,-3.19 -1.64,0 -1.84,2.23 -1.84,2.48 v 9.97 c 0,2.1 0,4.03 -1.78,5.88 -1.96,1.93 -4.44,2.73 -6.83,2.73 -4.09,0 -7.53,-2.33 -7.53,-5.62 0,-1.49 1,-2.35 2.29,-2.35 1.4,0 2.3,1 2.3,2.3 0,0.59 -0.25,2.23 -2.55,2.3 1.35,1.73 3.79,2.28 5.38,2.28 2.45,0 5.28,-1.94 5.28,-6.38 v -1.84 -1.05 -4.98 c 0,-4.74 -3.58,-6.42 -5.83,-6.42 -2.43,0 -4.48,1.75 -4.48,4.23 0,2.73 2.09,6.88 10.31,7.17 v 0 1.05 c -2.53,-0.14 -6.01,-0.3 -9.16,-1.8 -3.73,-1.69 -4.98,-4.28 -4.98,-6.47 0,-4.03 4.83,-5.28 7.97,-5.28 3.3,0 5.58,1.99 6.53,4.33 z"
           id="path7904"
           style="fill:#000000;stroke-width:0" /><path
           d="m 777.56,426.12 h 7.12 v 1.55 h -7.12 v 9.17 h -1.25 c -0.05,-4.08 -1.55,-9.42 -6.42,-9.61 v -1.11 h 4.23 v -13.75 c 0,-6.12 4.63,-6.72 6.42,-6.72 3.53,0 4.94,3.53 4.94,6.72 v 2.84 h -1.25 v -2.73 c 0,-3.69 -1.5,-5.58 -3.34,-5.58 -3.33,0 -3.33,4.53 -3.33,5.38 z"
           id="path7906"
           style="fill:#000000;stroke-width:0" /><path
           d="m 793.78,417.71 0.05,1.05 c 0.29,7.42 4.48,8.66 6.19,8.66 5.12,0 5.62,-6.72 5.62,-8.66 h -11.81 l -0.05,-1.05 h 13.91 c 1.09,0 1.23,0 1.23,1.05 0,4.92 -2.69,9.75 -8.9,9.75 -5.79,0 -10.38,-5.12 -10.38,-11.36 0,-6.67 5.24,-11.5 10.97,-11.5 6.08,0 8.31,5.53 8.31,6.47 0,0.5 -0.39,0.61 -0.64,0.61 -0.45,0 -0.55,-0.3 -0.66,-0.7 -1.73,-5.13 -6.21,-5.13 -6.71,-5.13 -2.5,0 -4.49,1.49 -5.63,3.33 -1.5,2.39 -1.5,5.69 -1.5,7.48 z"
           id="path7908"
           style="fill:#000000;stroke-width:0" /><path
           d="m 820.69,415.87 0.11,-0.02 0.13,-0.02 0.14,-0.03 0.15,-0.04 0.17,-0.04 0.18,-0.04 0.19,-0.05 0.2,-0.06 0.2,-0.06 0.22,-0.07 0.21,-0.08 0.22,-0.08 0.22,-0.1 0.22,-0.1 0.22,-0.11 0.22,-0.12 0.22,-0.14 0.21,-0.14 0.2,-0.15 0.2,-0.16 0.19,-0.18 0.18,-0.19 0.17,-0.2 0.16,-0.21 0.14,-0.22 0.07,-0.12 0.06,-0.12 0.06,-0.13 0.05,-0.12 0.05,-0.14 0.05,-0.13 0.04,-0.14 0.03,-0.14 0.03,-0.15 0.03,-0.15 0.02,-0.16 0.01,-0.15 0.01,-0.17 0.01,-0.16 c 0,-2.53 -1.76,-4.53 -5.63,-4.53 -4.19,0 -5.98,2.84 -6.94,7.07 -0.14,0.64 -0.19,0.85 -0.69,0.85 -0.65,0 -0.65,-0.35 -0.65,-1.25 v -6.58 c 0,-0.84 0,-1.19 0.55,-1.19 0.25,0 0.29,0.05 1.25,1 0.09,0.1 0.09,0.19 1,1.14 2.18,-2.09 4.43,-2.14 5.48,-2.14 5.72,0 8.02,3.35 8.02,6.92 0,2.64 -1.5,4.14 -2.1,4.74 -1.64,1.59 -3.59,2 -5.69,2.39 -2.78,0.55 -6.12,1.2 -6.12,4.09 0,1.74 1.3,3.78 5.58,3.78 5.48,0 5.73,-4.48 5.83,-6.03 0.06,-0.45 0.5,-0.45 0.61,-0.45 0.64,0 0.64,0.25 0.64,1.2 v 5.03 c 0,0.85 0,1.19 -0.55,1.19 -0.25,0 -0.35,0 -1,-0.59 -0.14,-0.21 -0.64,-0.64 -0.85,-0.8 -1.89,1.39 -3.93,1.39 -4.68,1.39 -6.08,0 -7.97,-3.33 -7.97,-6.12 0,-1.74 0.8,-3.14 2.14,-4.24 1.59,-1.29 3,-1.59 6.58,-2.28 z"
           id="path7910"
           style="fill:#000000;stroke-width:0" /><path
           d="m 839.57,425.03 v 0.13 l -0.01,0.14 -0.02,0.13 -0.02,0.13 -0.03,0.13 -0.04,0.12 -0.04,0.12 -0.05,0.12 -0.05,0.12 -0.06,0.11 -0.06,0.11 -0.07,0.11 -0.08,0.1 -0.07,0.1 -0.09,0.1 -0.09,0.09 -0.09,0.09 -0.09,0.08 -0.1,0.08 -0.11,0.08 -0.1,0.06 -0.11,0.07 -0.12,0.06 -0.11,0.05 -0.12,0.05 -0.13,0.04 -0.12,0.03 -0.13,0.03 -0.13,0.03 -0.13,0.01 -0.13,0.01 -0.14,0.01 c -1.44,0 -2.64,-1.19 -2.64,-2.64 0,-1.44 1.2,-2.64 2.64,-2.64 1.45,0 2.64,1.2 2.64,2.64 z"
           id="path7912"
           style="fill:#000000;stroke-width:0" /><path
           d="m 839.57,408.84 v 0.13 l -0.01,0.14 -0.02,0.13 -0.02,0.13 -0.03,0.12 -0.04,0.13 -0.04,0.12 -0.05,0.12 -0.05,0.12 -0.06,0.11 -0.06,0.11 -0.07,0.11 -0.08,0.1 -0.07,0.1 -0.09,0.1 -0.09,0.09 -0.09,0.09 -0.09,0.08 -0.1,0.08 -0.11,0.07 -0.1,0.07 -0.11,0.07 -0.12,0.06 -0.11,0.05 -0.12,0.05 -0.13,0.04 -0.12,0.04 -0.13,0.03 -0.13,0.02 -0.13,0.02 -0.13,0.01 h -0.14 c -1.44,0 -2.64,-1.2 -2.64,-2.64 0,-1.44 1.2,-2.64 2.64,-2.64 1.45,0 2.64,1.2 2.64,2.64 z"
           id="path7914"
           style="fill:#000000;stroke-width:0" /><path
           d="m 878.12,439.14 -0.02,0.05 -0.02,0.05 -0.02,0.04 -0.02,0.05 -0.04,0.09 -0.03,0.08 -0.04,0.07 -0.03,0.07 -0.04,0.07 -0.03,0.06 -0.04,0.05 -0.04,0.05 -0.03,0.05 -0.04,0.04 -0.04,0.04 -0.04,0.04 -0.04,0.03 -0.04,0.02 -0.05,0.03 -0.05,0.02 -0.05,0.02 -0.05,0.01 -0.05,0.02 -0.06,0.01 -0.07,0.01 h -0.06 l -0.07,0.01 h -0.08 l -0.08,0.01 h -0.08 -0.09 -0.09 -0.1 -0.1 -8.42 v -1.55 h 1.2 c 3.83,0 3.92,-0.54 3.92,-2.34 v -24.91 c 0,-1.34 0,-3.68 -5.12,-3.68 v -1.55 c 1.75,0.05 4.18,0.16 5.82,0.16 1.64,0 4.1,-0.11 5.83,-0.16 v 1.55 c -5.12,0 -5.12,2.34 -5.12,3.68 v 26.85 h 0.04 l 12,-30.99 c 0.25,-0.64 0.5,-1.09 1,-1.09 0.55,0 0.71,0.41 0.89,0.95 l 12.27,31.53 h 0.05 v -28.59 c 0,-1.8 -0.1,-2.34 -3.94,-2.34 h -1.19 v -1.55 c 1.85,0.16 5.22,0.16 7.17,0.16 1.94,0 5.28,0 7.13,-0.16 v 1.55 h -1.2 c -3.83,0 -3.94,0.54 -3.94,2.34 v 26.25 c 0,1.8 0.11,2.34 3.94,2.34 h 1.2 v 1.55 h -8.42 c -1.3,0 -1.3,-0.05 -1.65,-0.95 l -10.92,-28.05 z"
           id="path7916"
           style="fill:#000000;stroke-width:0" /><path
           d="m 923.15,421.95 -0.15,1.28 v 13.45 c 0,1.66 0.1,2 2.43,2 h 4.44 c 7.92,0 7.92,-5.28 7.92,-7.72 0,-2.34 0,-7.73 -7.92,-7.73 H 923 l 0.15,-1.28 h 8.42 c 5.97,0 11.36,4.03 11.36,9.01 0,4.88 -4.93,9.27 -11.76,9.27 h -17.58 v -1.55 h 1.19 c 3.84,0 3.94,-0.54 3.94,-2.34 v -26.25 c 0,-1.8 -0.1,-2.34 -3.94,-2.34 h -1.19 v -1.55 c 1.73,0.16 5.42,0.16 7.31,0.16 1.89,0 5.64,0 7.38,-0.16 v 1.55 h -1.19 c -3.84,0 -3.94,0.54 -3.94,2.34 z"
           id="path7918"
           style="fill:#000000;stroke-width:0" /><path
           d="m 963.19,425.53 -6.38,1.54 c -3.09,0.75 -5.03,3.44 -5.03,6.33 0,3.49 2.69,6.53 6.58,6.53 8.31,0 9.41,-8.17 9.7,-10.42 0.05,-0.3 0.05,-0.59 0.61,-0.59 0.64,0 0.64,0.25 0.64,1.2 v 10 c 0,0.86 0,1.2 -0.54,1.2 -0.35,0 -0.41,-0.04 -0.75,-0.65 l -1.74,-2.83 c -1.5,1.44 -3.55,3.48 -7.98,3.48 -5.53,0 -9.71,-4.39 -9.71,-9.67 0,-4.12 2.64,-7.76 6.52,-9.11 0.55,-0.2 3.09,-0.79 6.58,-1.64 1.34,-0.36 2.84,-0.7 4.23,-2.54 1.05,-1.3 1.55,-2.94 1.55,-4.58 0,-3.55 -2.49,-7.13 -6.67,-7.13 -1.46,0 -5.24,0.25 -7.88,2.69 -2.89,2.69 -3.04,5.87 -3.09,7.67 -0.05,0.5 -0.44,0.5 -0.6,0.5 -0.64,0 -0.64,-0.36 -0.64,-1.25 v -9.97 c 0,-0.84 0,-1.18 0.55,-1.18 0.34,0 0.39,0.09 0.74,0.64 0,0.04 0.15,0.2 1.79,2.84 1.55,-1.69 4.74,-3.48 9.17,-3.48 5.83,0 9.82,4.87 9.82,10.35 0,4.99 -3.28,9.07 -7.47,10.07 z"
           id="path7920"
           style="fill:#000000;stroke-width:0" /><path
           d="m 1000.3,415.87 0.1,-0.02 0.2,-0.02 0.1,-0.03 0.2,-0.04 0.1,-0.04 0.2,-0.04 0.2,-0.05 0.2,-0.06 0.2,-0.06 0.2,-0.07 0.2,-0.08 0.2,-0.08 0.3,-0.1 0.2,-0.1 0.2,-0.11 0.2,-0.12 0.2,-0.14 0.2,-0.14 0.3,-0.15 0.1,-0.16 0.2,-0.18 0.2,-0.19 0.2,-0.2 0.1,-0.21 0.2,-0.22 0.1,-0.12 v -0.12 l 0.1,-0.13 v -0.12 l 0.1,-0.14 v -0.13 l 0.1,-0.14 v -0.14 -0.15 l 0.1,-0.15 v -0.16 -0.15 -0.17 -0.16 c 0,-2.53 -1.7,-4.53 -5.62,-4.53 -4.19,0 -5.98,2.84 -6.94,7.07 -0.14,0.64 -0.19,0.85 -0.69,0.85 -0.65,0 -0.65,-0.35 -0.65,-1.25 v -6.58 c 0,-0.84 0,-1.19 0.55,-1.19 0.25,0 0.29,0.05 1.25,1 0.09,0.1 0.09,0.19 1,1.14 2.18,-2.09 4.43,-2.14 5.48,-2.14 5.72,0 8.02,3.35 8.02,6.92 0,2.64 -1.5,4.14 -2.1,4.74 -1.6,1.59 -3.6,2 -5.7,2.39 -2.77,0.55 -6.11,1.2 -6.11,4.09 0,1.74 1.29,3.78 5.58,3.78 5.43,0 5.73,-4.48 5.83,-6.03 0.1,-0.45 0.5,-0.45 0.6,-0.45 0.6,0 0.6,0.25 0.6,1.2 v 5.03 c 0,0.85 0,1.19 -0.5,1.19 -0.3,0 -0.3,0 -1,-0.59 -0.1,-0.21 -0.6,-0.64 -0.9,-0.8 -1.8,1.39 -3.9,1.39 -4.63,1.39 -6.08,0 -7.97,-3.33 -7.97,-6.12 0,-1.74 0.8,-3.14 2.14,-4.24 1.59,-1.29 3,-1.59 6.56,-2.28 z"
           id="path7922"
           style="fill:#000000;stroke-width:0" /><path
           d="m 1018.3,426.12 h 7.1 v 1.55 h -7.1 v 9.17 h -1.3 c 0,-4.08 -1.5,-9.42 -6.4,-9.61 v -1.11 h 4.2 v -13.75 c 0,-6.12 4.7,-6.72 6.4,-6.72 3.6,0 5,3.53 5,6.72 v 2.84 h -1.3 v -2.73 c 0,-3.69 -1.5,-5.58 -3.3,-5.58 -3.3,0 -3.3,4.53 -3.3,5.38 z"
           id="path7924"
           style="fill:#000000;stroke-width:0" /><path
           d="m 1045.6,409.98 v -0.19 -0.18 -0.19 l 0.1,-0.18 v -0.19 l 0.1,-0.18 v -0.18 l 0.1,-0.18 0.1,-0.18 0.1,-0.17 0.1,-0.18 v -0.16 l 0.1,-0.16 0.2,-0.16 0.1,-0.16 0.1,-0.14 0.1,-0.14 0.1,-0.14 0.2,-0.13 0.1,-0.12 0.2,-0.12 0.1,-0.1 0.2,-0.1 0.2,-0.09 0.1,-0.08 0.2,-0.07 0.2,-0.06 0.2,-0.05 0.2,-0.04 0.2,-0.03 0.2,-0.02 0.2,-0.01 c 1.1,0 4.1,0.71 4.1,4.74 v 2.78 h -1.2 v -2.78 c 0,-2.89 -1.3,-3.19 -1.8,-3.19 -1.7,0 -1.9,2.23 -1.9,2.48 v 9.97 c 0,2.1 0,4.03 -1.8,5.88 -1.9,1.93 -4.4,2.73 -6.8,2.73 -4.1,0 -7.5,-2.33 -7.5,-5.62 0,-1.49 1,-2.35 2.3,-2.35 1.4,0 2.3,1 2.3,2.3 0,0.59 -0.3,2.23 -2.6,2.3 1.4,1.73 3.8,2.28 5.4,2.28 2.5,0 5.3,-1.94 5.3,-6.38 v -1.84 -1.05 -4.98 c 0,-4.74 -3.6,-6.42 -5.8,-6.42 -2.5,0 -4.5,1.75 -4.5,4.23 0,2.73 2.1,6.88 10.3,7.17 v 0 1.05 c -2.5,-0.14 -6,-0.3 -9.2,-1.8 -3.7,-1.69 -4.9,-4.28 -4.9,-6.47 0,-4.03 4.8,-5.28 7.9,-5.28 3.3,0 5.6,1.99 6.6,4.33 z"
           id="path7926"
           style="fill:#000000;stroke-width:0" /><path
           d="m 1062.5,426.12 h 7.2 v 1.55 h -7.2 v 9.17 h -1.2 c -0.1,-4.08 -1.6,-9.42 -6.4,-9.61 v -1.11 h 4.2 v -13.75 c 0,-6.12 4.6,-6.72 6.4,-6.72 3.6,0 5,3.53 5,6.72 v 2.84 h -1.3 v -2.73 c 0,-3.69 -1.5,-5.58 -3.3,-5.58 -3.4,0 -3.4,4.53 -3.4,5.38 z"
           id="path7928"
           style="fill:#000000;stroke-width:0" /><path
           d="m 1078.8,417.71 v 1.05 c 0.3,7.42 4.5,8.66 6.2,8.66 5.1,0 5.6,-6.72 5.6,-8.66 h -11.8 v -1.05 h 13.9 c 1.1,0 1.2,0 1.2,1.05 0,4.92 -2.7,9.75 -8.9,9.75 -5.8,0 -10.4,-5.12 -10.4,-11.36 0,-6.67 5.2,-11.5 11,-11.5 6.1,0 8.3,5.53 8.3,6.47 0,0.5 -0.4,0.61 -0.6,0.61 -0.5,0 -0.6,-0.3 -0.7,-0.7 -1.7,-5.13 -6.2,-5.13 -6.7,-5.13 -2.5,0 -4.5,1.49 -5.6,3.33 -1.5,2.39 -1.5,5.69 -1.5,7.48 z"
           id="path7930"
           style="fill:#000000;stroke-width:0" /><path
           d="m 1105.7,415.87 0.1,-0.02 0.1,-0.02 0.1,-0.03 0.2,-0.04 0.2,-0.04 0.1,-0.04 0.2,-0.05 0.2,-0.06 0.2,-0.06 0.3,-0.07 0.2,-0.08 0.2,-0.08 0.2,-0.1 0.2,-0.1 0.2,-0.11 0.3,-0.12 0.2,-0.14 0.2,-0.14 0.2,-0.15 0.2,-0.16 0.2,-0.18 0.2,-0.19 0.1,-0.2 0.2,-0.21 0.1,-0.22 0.1,-0.12 0.1,-0.12 v -0.13 l 0.1,-0.12 v -0.14 l 0.1,-0.13 v -0.14 -0.14 l 0.1,-0.15 v -0.15 -0.16 -0.15 -0.17 -0.16 c 0,-2.53 -1.7,-4.53 -5.6,-4.53 -4.2,0 -6,2.84 -6.9,7.07 -0.1,0.64 -0.2,0.85 -0.7,0.85 -0.7,0 -0.7,-0.35 -0.7,-1.25 v -6.58 c 0,-0.84 0,-1.19 0.6,-1.19 0.2,0 0.3,0.05 1.2,1 0.1,0.1 0.1,0.19 1,1.14 2.2,-2.09 4.5,-2.14 5.5,-2.14 5.7,0 8,3.35 8,6.92 0,2.64 -1.5,4.14 -2,4.74 -1.7,1.59 -3.6,2 -5.7,2.39 -2.8,0.55 -6.2,1.2 -6.2,4.09 0,1.74 1.3,3.78 5.6,3.78 5.5,0 5.8,-4.48 5.8,-6.03 0.1,-0.45 0.5,-0.45 0.6,-0.45 0.7,0 0.7,0.25 0.7,1.2 v 5.03 c 0,0.85 0,1.19 -0.6,1.19 -0.2,0 -0.3,0 -1,-0.59 -0.1,-0.21 -0.6,-0.64 -0.8,-0.8 -1.9,1.39 -3.9,1.39 -4.7,1.39 -6.1,0 -8,-3.33 -8,-6.12 0,-1.74 0.8,-3.14 2.2,-4.24 1.6,-1.29 3,-1.59 6.6,-2.28 z"
           id="path7932"
           style="fill:#000000;stroke-width:0" /></g>    </g>
    <g
       transform="translate(145.39462,110.64958)"
       id="g8530">
      <g
         style="font-style:normal;font-variant:normal;font-weight:normal;font-stretch:normal;letter-spacing:normal;word-spacing:normal;text-anchor:start;fill:none;fill-opacity:1;fill-rule:evenodd;stroke:#000000;stroke-linecap:butt;stroke-linejoin:miter;stroke-miterlimit:10.43299961;stroke-dasharray:none;stroke-dashoffset:0;stroke-opacity:1"
         id="g8528"
         transform="matrix(0.34654849,0,0,-0.34654849,-60.645985,273.75664)"
         xml:space="preserve"
         stroke-miterlimit="10.433"
         font-style="normal"
         font-variant="normal"
         font-weight="normal"
         font-stretch="normal"
         font-size-adjust="none"
         letter-spacing="normal"
         word-spacing="normal"><path
           style="fill:#000000;stroke-width:0"
           d="m 463.44,441.78 v 0.16 0.17 l -0.01,0.16 v 0.08 0.08 l -0.01,0.08 -0.01,0.08 -0.01,0.07 -0.01,0.07 -0.02,0.07 -0.01,0.07 -0.02,0.07 -0.02,0.06 -0.03,0.06 -0.03,0.06 -0.03,0.06 -0.03,0.05 -0.04,0.05 -0.04,0.05 -0.05,0.04 -0.05,0.04 -0.03,0.01 -0.03,0.02 -0.03,0.02 -0.03,0.01 -0.03,0.01 -0.03,0.02 -0.03,0.01 -0.04,0.01 -0.04,0.01 -0.03,0.01 h -0.04 l -0.04,0.01 h -0.04 l -0.05,0.01 h -0.04 -0.05 c -1,0 -1,-0.89 -1,-1.78 v -46.24 c 0,-0.9 0,-1.79 1,-1.79 1,0 1,0.89 1,1.79 z"
           id="path8494" /><path
           style="fill:#000000;stroke-width:0"
           d="m 491.08,439.57 v 0.01 0.01 0 0.01 0.01 l 0.01,0.01 v 0 0.01 0.02 l 0.01,0.03 v 0.02 l 0.01,0.02 v 0.03 l 0.01,0.03 v 0.02 l 0.01,0.03 0.01,0.03 0.01,0.03 0.01,0.06 0.01,0.06 0.01,0.03 0.01,0.02 0.01,0.03 v 0.03 l 0.01,0.02 v 0.02 l 0.01,0.02 v 0.02 l 0.01,0.01 v 0.01 0.01 0.01 0 0.01 l 0.01,0.01 v 0 0.01 0 0 0.01 c 0,0.04 0,0.5 -0.6,0.5 -0.5,0 -0.54,-0.16 -0.75,-1 L 487,428.28 c -7.92,-0.25 -15.25,-6.88 -15.25,-13.66 0,-4.73 3.49,-8.67 9.57,-9.01 l 0.25,1.09 c -2.99,0.14 -6.58,1.89 -6.58,6.87 0,5.99 4.3,12.96 11.72,13.6 l -5.14,-20.47 -0.25,-1.09 c -0.39,-1.55 -0.74,-3.15 -1.14,-4.69 -0.6,-2.35 -1.1,-4.24 -1.1,-4.39 0,-0.49 0.35,-0.55 0.6,-0.55 0.25,0 0.36,0.06 0.5,0.2 0.09,0.1 0.4,1.3 0.54,2 l 1.89,7.43 0.25,1.09 5.14,20.47 c 3.79,-0.19 6.63,-2.49 6.63,-6.88 0,-5.87 -4.28,-13 -11.77,-13.59 l -0.25,-1.09 c 8.03,0.25 15.25,6.96 15.25,13.64 0,3.93 -2.64,8.53 -9.56,9.03 z"
           id="path8496" /><path
           style="fill:#000000;stroke-width:0"
           d="m 510.63,420.92 v 0.04 0.04 0.05 0.04 0.03 0.04 0.04 0.03 0.04 0.03 l -0.01,0.03 v 0.03 0.03 l -0.01,0.03 v 0.03 0.02 l -0.01,0.03 v 0.02 l -0.01,0.03 v 0.02 l -0.01,0.04 -0.02,0.04 -0.02,0.03 -0.02,0.03 -0.02,0.03 -0.02,0.03 -0.03,0.02 -0.03,0.02 -0.03,0.02 -0.04,0.01 -0.04,0.01 -0.05,0.02 h -0.02 -0.02 l -0.03,0.01 h -0.03 l -0.02,0.01 h -0.03 -0.03 -0.03 -0.03 l -0.04,0.01 h -0.03 -0.04 -0.03 -0.04 -0.04 -0.04 -0.04 -0.04 -0.05 -0.04 c -2.24,-2.2 -5.39,-2.23 -6.83,-2.23 v -1.25 c 0.84,0 3.14,0 5.04,0.97 v -17.77 c 0,-1.16 0,-1.61 -3.48,-1.61 h -1.31 v -1.25 c 0.62,0.03 4.9,0.14 6.2,0.14 1.08,0 5.47,-0.11 6.24,-0.14 v 1.25 h -1.33 c -3.49,0 -3.49,0.45 -3.49,1.61 z"
           id="path8498" /><path
           style="fill:#000000;stroke-width:0"
           d="m 534.99,417.81 0.01,0.03 0.01,0.02 0.02,0.03 0.01,0.02 0.01,0.03 0.01,0.02 0.01,0.03 v 0.02 l 0.01,0.02 0.01,0.02 0.01,0.02 0.01,0.03 0.01,0.03 0.02,0.04 0.01,0.04 0.01,0.03 0.01,0.03 0.01,0.03 0.01,0.03 0.01,0.02 v 0.03 l 0.01,0.02 0.01,0.02 v 0.02 l 0.01,0.02 v 0.02 0.02 0.01 l 0.01,0.02 v 0.01 0.02 0.01 0.03 0.03 0.02 c 0,0.16 0,0.25 -0.25,0.85 l -8.72,22.92 c -0.29,0.84 -0.59,1.14 -1.14,1.14 -0.54,0 -1,-0.44 -1,-0.99 0,-0.15 0,-0.25 0.25,-0.79 l 8.83,-23.13 -8.83,-23.01 c -0.25,-0.55 -0.25,-0.64 -0.25,-0.89 0,-0.55 0.46,-1 1,-1 0.66,0 0.85,0.5 1.05,1 z"
           id="path8500" /><path
           style="fill:#000000;stroke-width:0"
           d="m 587.84,418.65 h -1.25 c 0,-3.83 -1.43,-7.47 -4.03,-10.4 l -10.4,10.4 10.36,10.42 -0.9,0.85 -10.37,-10.42 -9.91,9.87 c -0.11,0.09 -0.45,0.44 -0.45,0.55 0,0.2 4.03,4.08 10.31,4.08 1.75,0 6.33,-0.25 10.42,-4.08 l 0.9,-0.85 c 2.39,-2.54 4.07,-6.32 4.07,-10.42 h 1.25 c 0,9.17 -7.46,16.6 -16.59,16.6 -9.27,0 -16.64,-7.54 -16.64,-16.6 h 1.25 c 0,3.85 1.45,7.47 4.03,10.42 l 10.42,-10.42 0.89,-0.84 9.92,-9.86 c 0.1,-0.11 0.44,-0.45 0.44,-0.55 0,-0.2 -4.03,-4.09 -10.31,-4.09 -1.73,0 -6.33,0.25 -10.41,4.09 l 10.36,10.41 -0.89,0.84 -10.42,-10.4 c -3.03,3.39 -4.03,7.21 -4.03,10.4 h -1.25 c 0,-9.17 7.48,-16.59 16.59,-16.59 9.27,0 16.64,7.53 16.64,16.59 z"
           id="path8502" /><path
           style="fill:#000000;stroke-width:0"
           d="m 609.6,441.78 v 0.16 0.17 l -0.01,0.16 v 0.08 l -0.01,0.08 v 0.08 l -0.01,0.08 -0.01,0.07 -0.01,0.07 -0.02,0.07 -0.02,0.07 -0.01,0.07 -0.03,0.06 -0.02,0.06 -0.03,0.06 -0.03,0.06 -0.04,0.05 -0.03,0.05 -0.05,0.05 -0.04,0.04 -0.05,0.04 -0.03,0.01 -0.03,0.02 -0.03,0.02 -0.03,0.01 -0.03,0.01 -0.03,0.02 -0.04,0.01 -0.03,0.01 -0.04,0.01 -0.04,0.01 h -0.04 l -0.04,0.01 h -0.04 l -0.04,0.01 h -0.05 -0.04 c -1,0 -1,-0.89 -1,-1.78 v -46.24 c 0,-0.9 0,-1.79 1,-1.79 1,0 1,0.89 1,1.79 z"
           id="path8504" /><path
           style="fill:#000000;stroke-width:0"
           d="m 637.24,439.57 v 0.01 0.01 0 0.01 0.01 0.01 0 0.01 l 0.01,0.02 v 0.03 l 0.01,0.02 v 0.02 l 0.01,0.03 v 0.03 l 0.01,0.02 0.01,0.03 v 0.03 l 0.01,0.03 0.02,0.06 0.01,0.06 0.01,0.03 0.01,0.02 v 0.03 l 0.01,0.03 v 0.02 l 0.01,0.02 0.01,0.02 v 0.02 0.01 0.01 l 0.01,0.01 v 0.01 0 0.01 0.01 0 0.01 0 0 l 0.01,0.01 c 0,0.04 0,0.5 -0.6,0.5 -0.5,0 -0.55,-0.16 -0.75,-1 l -2.89,-11.5 c -7.92,-0.25 -15.25,-6.88 -15.25,-13.66 0,-4.73 3.49,-8.67 9.56,-9.01 l 0.25,1.09 c -2.98,0.14 -6.57,1.89 -6.57,6.87 0,5.99 4.29,12.96 11.71,13.6 l -5.14,-20.47 -0.25,-1.09 c -0.39,-1.55 -0.73,-3.15 -1.14,-4.69 -0.59,-2.35 -1.09,-4.24 -1.09,-4.39 0,-0.49 0.34,-0.55 0.59,-0.55 0.25,0 0.36,0.06 0.5,0.2 0.1,0.1 0.41,1.3 0.55,2 l 1.89,7.43 0.25,1.09 5.14,20.47 c 3.78,-0.19 6.62,-2.49 6.62,-6.88 0,-5.87 -4.28,-13 -11.76,-13.59 l -0.25,-1.09 c 8.03,0.25 15.25,6.96 15.25,13.64 0,3.93 -2.64,8.53 -9.56,9.03 z"
           id="path8506" /><path
           style="fill:#000000;stroke-width:0"
           d="m 662.72,405.11 h -1.19 c -0.1,-0.77 -0.46,-2.83 -0.91,-3.18 -0.27,-0.2 -2.95,-0.2 -3.44,-0.2 h -6.42 c 3.66,3.23 4.88,4.2 6.97,5.84 2.58,2.07 4.99,4.22 4.99,7.54 0,4.21 -3.69,6.79 -8.16,6.79 -4.31,0 -7.25,-3.03 -7.25,-6.23 0,-1.78 1.5,-1.96 1.86,-1.96 0.83,0 1.84,0.6 1.84,1.85 0,0.62 -0.25,1.84 -2.06,1.84 1.08,2.47 3.45,3.24 5.09,3.24 3.49,0 5.3,-2.71 5.3,-5.53 0,-3.04 -2.16,-5.44 -3.28,-6.69 l -8.39,-8.3 c -0.36,-0.31 -0.36,-0.39 -0.36,-1.36 h 14.36 z"
           id="path8508" /><path
           style="fill:#000000;stroke-width:0"
           d="m 681.15,417.81 0.01,0.03 0.01,0.02 0.02,0.03 0.01,0.02 0.01,0.03 0.01,0.02 0.01,0.03 v 0.02 l 0.01,0.02 0.01,0.02 0.01,0.02 0.01,0.03 0.01,0.03 0.02,0.04 0.01,0.04 0.01,0.03 0.01,0.03 0.01,0.03 0.01,0.03 0.01,0.02 v 0.03 l 0.01,0.02 0.01,0.02 v 0.02 l 0.01,0.02 v 0.02 0.02 0.01 l 0.01,0.02 v 0.01 0.02 0.01 0.03 0.03 0.02 c 0,0.16 0,0.25 -0.25,0.85 l -8.72,22.92 c -0.29,0.84 -0.59,1.14 -1.14,1.14 -0.54,0 -1,-0.44 -1,-0.99 0,-0.15 0,-0.25 0.25,-0.79 l 8.83,-23.13 -8.83,-23.01 c -0.25,-0.55 -0.25,-0.64 -0.25,-0.89 0,-0.55 0.46,-1 1,-1 0.66,0 0.85,0.5 1.05,1 z"
           id="path8510" /><path
           style="fill:#000000;stroke-width:0"
           d="m 734,418.65 h -1.25 c 0,-3.83 -1.43,-7.47 -4.03,-10.4 l -10.4,10.4 10.36,10.42 -0.9,0.85 -10.37,-10.42 -9.91,9.87 c -0.1,0.09 -0.45,0.44 -0.45,0.55 0,0.2 4.03,4.08 10.31,4.08 1.75,0 6.33,-0.25 10.42,-4.08 l 0.9,-0.85 c 2.39,-2.54 4.07,-6.32 4.07,-10.42 H 734 c 0,9.17 -7.47,16.6 -16.59,16.6 -9.26,0 -16.64,-7.54 -16.64,-16.6 h 1.25 c 0,3.85 1.45,7.47 4.03,10.42 l 10.42,-10.42 0.89,-0.84 9.92,-9.86 c 0.1,-0.11 0.44,-0.45 0.44,-0.55 0,-0.2 -4.03,-4.09 -10.31,-4.09 -1.73,0 -6.33,0.25 -10.41,4.09 l 10.36,10.41 -0.89,0.84 -10.42,-10.4 c -3.03,3.39 -4.03,7.21 -4.03,10.4 h -1.25 c 0,-9.17 7.48,-16.59 16.59,-16.59 9.27,0 16.64,7.53 16.64,16.59 z"
           id="path8512" /><path
           style="fill:#000000;stroke-width:0"
           d="m 757.4,418.65 -0.01,0.14 -0.01,0.13 -0.01,0.13 -0.03,0.13 -0.03,0.13 -0.03,0.13 -0.04,0.12 -0.05,0.12 -0.05,0.11 -0.06,0.12 -0.07,0.11 -0.06,0.11 -0.08,0.1 -0.08,0.1 -0.08,0.1 -0.09,0.09 -0.09,0.08 -0.09,0.09 -0.1,0.08 -0.11,0.07 -0.11,0.07 -0.11,0.06 -0.11,0.06 -0.12,0.05 -0.12,0.05 -0.12,0.04 -0.12,0.04 -0.13,0.03 -0.13,0.02 -0.13,0.02 -0.14,0.01 h -0.13 c -1.44,0 -2.64,-1.18 -2.64,-2.64 0,-1.44 1.2,-2.64 2.64,-2.64 1.45,0 2.64,1.2 2.64,2.64 z"
           id="path8514" /><path
           style="fill:#000000;stroke-width:0"
           d="m 779.47,418.65 v 0.14 l -0.01,0.13 -0.02,0.13 -0.02,0.13 -0.03,0.13 -0.04,0.13 -0.04,0.12 -0.05,0.12 -0.05,0.11 -0.06,0.12 -0.06,0.11 -0.07,0.11 -0.07,0.1 -0.08,0.1 -0.09,0.1 -0.08,0.09 -0.09,0.08 -0.1,0.09 -0.1,0.08 -0.1,0.07 -0.11,0.07 -0.11,0.06 -0.12,0.06 -0.11,0.05 -0.12,0.05 -0.12,0.04 -0.13,0.04 -0.13,0.03 -0.13,0.02 -0.13,0.02 -0.13,0.01 h -0.14 c -1.43,0 -2.64,-1.18 -2.64,-2.64 0,-1.44 1.21,-2.64 2.64,-2.64 1.45,0 2.64,1.2 2.64,2.64 z"
           id="path8516" /><path
           style="fill:#000000;stroke-width:0"
           d="m 801.55,418.65 v 0.14 l -0.01,0.13 -0.02,0.13 -0.02,0.13 -0.03,0.13 -0.04,0.13 -0.04,0.12 -0.05,0.12 -0.05,0.11 -0.06,0.12 -0.06,0.11 -0.07,0.11 -0.08,0.1 -0.07,0.1 -0.09,0.1 -0.08,0.09 -0.1,0.08 -0.09,0.09 -0.1,0.08 -0.11,0.07 -0.1,0.07 -0.11,0.06 -0.12,0.06 -0.11,0.05 -0.12,0.05 -0.13,0.04 -0.12,0.04 -0.13,0.03 -0.13,0.02 -0.13,0.02 -0.13,0.01 h -0.14 c -1.44,0 -2.64,-1.18 -2.64,-2.64 0,-1.44 1.2,-2.64 2.64,-2.64 1.45,0 2.64,1.2 2.64,2.64 z"
           id="path8518" /><path
           style="fill:#000000;stroke-width:0"
           d="m 822.1,441.78 v 0.16 0.17 0.16 l -0.01,0.08 v 0.08 l -0.01,0.08 -0.01,0.08 -0.01,0.07 -0.01,0.07 -0.01,0.07 -0.02,0.07 -0.02,0.07 -0.02,0.06 -0.02,0.06 -0.03,0.06 -0.03,0.06 -0.04,0.05 -0.04,0.05 -0.04,0.05 -0.05,0.04 -0.05,0.04 -0.02,0.01 -0.03,0.02 -0.03,0.02 -0.03,0.01 -0.03,0.01 -0.04,0.02 -0.03,0.01 -0.03,0.01 -0.04,0.01 -0.04,0.01 h -0.04 l -0.04,0.01 h -0.04 l -0.04,0.01 h -0.05 -0.05 c -1,0 -1,-0.89 -1,-1.78 v -46.24 c 0,-0.9 0,-1.79 1,-1.79 1,0 1,0.89 1,1.79 z"
           id="path8520" /><path
           style="fill:#000000;stroke-width:0"
           d="m 849.75,439.57 v 0.01 0.01 0 0.01 0.01 0.01 0 0.01 l 0.01,0.02 v 0.03 l 0.01,0.02 v 0.02 l 0.01,0.03 v 0.03 l 0.01,0.02 0.01,0.03 v 0.03 l 0.01,0.03 0.01,0.06 0.02,0.06 0.01,0.03 v 0.02 l 0.01,0.03 0.01,0.03 v 0.02 l 0.01,0.02 v 0.02 l 0.01,0.02 v 0.01 0.01 0.01 l 0.01,0.01 v 0 0.01 0.01 0 0.01 0 0 0.01 c 0,0.04 0,0.5 -0.59,0.5 -0.5,0 -0.55,-0.16 -0.75,-1 l -2.89,-11.5 c -7.92,-0.25 -15.25,-6.88 -15.25,-13.66 0,-4.73 3.48,-8.67 9.56,-9.01 l 0.25,1.09 c -2.98,0.14 -6.58,1.89 -6.58,6.87 0,5.99 4.3,12.96 11.72,13.6 l -5.14,-20.47 -0.25,-1.09 c -0.39,-1.55 -0.73,-3.15 -1.14,-4.69 -0.59,-2.35 -1.09,-4.24 -1.09,-4.39 0,-0.49 0.34,-0.55 0.59,-0.55 0.25,0 0.36,0.06 0.5,0.2 0.09,0.1 0.41,1.3 0.55,2 l 1.89,7.43 0.25,1.09 5.14,20.47 c 3.78,-0.19 6.62,-2.49 6.62,-6.88 0,-5.87 -4.28,-13 -11.76,-13.59 l -0.25,-1.09 c 8.03,0.25 15.25,6.96 15.25,13.64 0,3.93 -2.64,8.53 -9.56,9.03 z"
           id="path8522" /><path
           style="fill:#000000;stroke-width:0"
           d="m 861.89,400.95 -0.01,-0.04 -0.02,-0.05 -0.01,-0.04 -0.01,-0.05 -0.02,-0.05 -0.01,-0.06 -0.02,-0.05 -0.01,-0.05 -0.03,-0.11 -0.03,-0.11 -0.03,-0.12 -0.02,-0.1 -0.02,-0.06 -0.01,-0.05 -0.01,-0.05 -0.01,-0.05 -0.01,-0.05 -0.01,-0.04 -0.01,-0.05 -0.01,-0.04 -0.01,-0.03 v -0.04 l -0.01,-0.03 v -0.03 l -0.01,-0.02 v -0.02 -0.01 -0.01 -0.01 0 c 0,-0.77 0.62,-1.11 1.18,-1.11 0.63,0 1.18,0.45 1.36,0.76 0.18,0.32 0.46,1.43 0.63,2.16 0.17,0.66 0.55,2.27 0.76,3.14 0.21,0.77 0.43,1.53 0.6,2.33 0.37,1.44 0.45,1.7 1.45,3.14 0.99,1.39 2.63,3.2 5.24,3.2 2.01,0 2.04,-1.78 2.04,-2.44 0,-2.09 -1.48,-5.95 -2.04,-7.42 -0.39,-0.98 -0.54,-1.29 -0.54,-1.89 0,-1.84 1.55,-2.98 3.32,-2.98 3.48,0 5.01,4.79 5.01,5.33 0,0.45 -0.45,0.45 -0.54,0.45 -0.5,0 -0.54,-0.2 -0.68,-0.59 -0.79,-2.79 -2.29,-4.22 -3.68,-4.22 -0.74,0 -0.88,0.48 -0.88,1.22 0,0.79 0.17,1.25 0.8,2.82 0.42,1.08 1.86,4.77 1.86,6.72 0,3.39 -2.69,3.97 -4.53,3.97 -2.89,0 -4.85,-1.76 -5.89,-3.16 -0.25,2.4 -2.3,3.16 -3.74,3.16 -1.5,0 -2.3,-1.08 -2.75,-1.87 -0.76,-1.29 -1.25,-3.29 -1.25,-3.46 0,-0.45 0.49,-0.45 0.6,-0.45 0.48,0 0.51,0.11 0.76,1.05 0.52,2.06 1.19,3.76 2.55,3.76 0.9,0 1.14,-0.76 1.14,-1.7 0,-0.67 -0.31,-1.95 -0.56,-2.89 -0.24,-0.95 -0.58,-2.38 -0.77,-3.14 z"
           id="path8524" /><path
           style="fill:#000000;stroke-width:0"
           d="m 898.47,417.81 0.01,0.03 0.02,0.02 0.01,0.03 0.01,0.02 0.01,0.03 0.01,0.02 0.01,0.03 0.01,0.02 v 0.02 l 0.01,0.02 0.01,0.02 0.01,0.03 0.01,0.03 0.02,0.04 0.01,0.04 0.01,0.03 0.01,0.03 0.01,0.03 0.01,0.03 0.01,0.02 0.01,0.03 v 0.02 l 0.01,0.02 v 0.02 l 0.01,0.02 v 0.02 0.02 l 0.01,0.01 v 0.02 0.01 0.02 0.01 0.03 0.03 0.02 c 0,0.16 0,0.25 -0.25,0.85 l -8.72,22.92 c -0.29,0.84 -0.59,1.14 -1.14,1.14 -0.54,0 -1,-0.44 -1,-0.99 0,-0.15 0,-0.25 0.25,-0.79 l 8.83,-23.13 -8.83,-23.01 c -0.25,-0.55 -0.25,-0.64 -0.25,-0.89 0,-0.55 0.46,-1 1,-1 0.66,0 0.85,0.5 1.05,1 z"
           id="path8526" /></g>    </g>
  </g>
</svg>
